<?xml version="1.0" standalone="no"?>
<!DOCTYPE svg PUBLIC "-//W3C//DTD SVG 20010904//EN"
 "http://www.w3.org/TR/2001/REC-SVG-20010904/DTD/svg10.dtd">
<svg version="1.0" xmlns="http://www.w3.org/2000/svg"
 width="1029.000000pt" height="913.000000pt" viewBox="0 0 1029.000000 913.000000"
 preserveAspectRatio="xMidYMid meet">

<g transform="translate(0.000000,913.000000) scale(0.100000,-0.100000)"
fill="#000000" stroke="none">
<path d="M145 6132 l0 -2997 135 0 135 0 3 2858 2 2857 4800 0 4800 0 0 -1053
c0 -580 -3 -2479 -7 -4220 l-6 -3167 -4929 0 -4928 0 0 -140 0 -140 5064 2
5065 3 6 4483 c5 3514 4 4486 -5 4497 -11 13 -639 15 -5074 15 l-5061 0 0
-2998z"/>
<path d="M9026 8093 c-4 -5 -71 -11 -149 -16 -266 -14 -615 -50 -697 -72 -140
-38 -178 -54 -254 -105 -24 -17 -59 -37 -78 -44 -18 -8 -44 -23 -58 -33 -115
-86 -219 -120 -153 -50 56 60 85 105 81 129 -4 28 -12 28 -143 -7 -55 -15
-122 -30 -150 -35 -68 -11 -98 -19 -185 -47 -111 -37 -162 -66 -248 -141 -125
-109 -152 -128 -152 -102 0 6 23 38 51 72 27 33 49 67 47 76 -8 40 -30 35
-378 -81 -362 -121 -424 -145 -511 -199 -127 -77 -178 -125 -339 -314 -94
-112 -159 -179 -166 -172 -2 3 28 68 67 145 61 119 73 149 77 201 4 50 1 63
-11 68 -30 11 -152 -28 -283 -91 -28 -14 -56 -25 -63 -25 -29 0 -209 -102
-243 -137 -20 -21 -57 -76 -83 -123 -79 -146 -114 -159 -55 -22 25 60 31 102
14 102 -3 0 -32 -14 -66 -31 -68 -34 -120 -67 -496 -316 -346 -229 -351 -236
-538 -653 -84 -188 -104 -227 -104 -203 0 20 107 335 140 413 74 173 68 171
-455 -182 -357 -241 -371 -250 -407 -285 -55 -53 -125 -219 -134 -318 -2 -22
-8 -101 -13 -175 -11 -157 -9 -140 -20 -140 -17 0 -31 63 -31 139 0 143 -45
279 -99 296 -28 9 -146 -57 -211 -119 -30 -29 -73 -65 -95 -81 -22 -15 -122
-111 -221 -212 -178 -180 -182 -185 -190 -236 -6 -44 -9 -153 -13 -509 -1 -27
-5 -48 -11 -48 -17 0 -29 37 -41 122 -30 233 -39 275 -56 289 -11 10 -17 9
-28 -2 -13 -14 -52 -142 -75 -249 -6 -30 -16 -75 -23 -100 -6 -25 -10 -73 -8
-107 1 -35 -3 -72 -10 -85 -40 -75 -39 -550 1 -656 7 -19 10 -50 6 -72 -3 -21
-1 -51 5 -67 7 -15 15 -59 20 -98 4 -38 12 -90 19 -115 27 -113 26 -124 -22
-197 -49 -75 -86 -136 -135 -224 -17 -32 -50 -85 -72 -118 -23 -33 -41 -62
-41 -66 0 -11 -115 -181 -144 -212 -18 -20 -44 -35 -65 -39 -43 -8 -58 -18
-77 -55 -12 -25 -12 -32 2 -62 16 -34 16 -36 -12 -73 -15 -22 -58 -71 -94
-111 -36 -39 -90 -101 -120 -138 -30 -36 -79 -93 -108 -126 l-53 -60 4 -87 c3
-48 8 -104 12 -126 9 -47 -17 -163 -58 -261 -36 -86 -39 -110 -13 -110 14 0
61 68 177 253 152 243 159 256 159 306 0 59 16 88 60 106 63 26 115 -47 69
-97 -13 -14 -39 -32 -58 -41 -28 -14 -56 -52 -148 -201 -62 -101 -113 -185
-113 -186 0 -2 -16 -26 -35 -55 -40 -59 -44 -80 -14 -80 12 0 43 24 76 61 59
63 143 126 204 152 57 25 75 42 61 60 -10 12 -2 35 41 128 30 63 82 177 116
254 34 77 74 165 89 195 27 54 54 71 60 38 3 -18 -148 -411 -203 -525 -19 -40
-46 -80 -60 -89 -31 -20 -32 -34 -3 -34 30 0 109 85 130 140 16 43 43 108 110
265 16 39 41 97 54 131 31 76 56 104 94 104 37 0 73 37 65 65 -20 68 -18 85
14 130 20 28 31 55 31 77 0 34 25 76 252 423 59 90 119 172 134 182 22 14 59
20 168 26 78 4 195 12 261 17 66 5 180 13 253 17 73 5 137 14 143 20 14 14 5
43 -14 43 -8 0 -40 9 -73 20 -32 12 -95 32 -139 45 -78 25 -104 39 -93 51 6 5
68 -1 303 -28 147 -17 272 -15 345 6 100 28 228 83 284 120 57 39 476 455 476
474 0 6 55 67 123 134 139 138 166 173 149 190 -13 13 -186 1 -587 -41 -55 -6
-129 -10 -165 -10 l-65 1 115 23 c122 23 268 48 415 70 50 8 110 19 135 25 25
6 74 15 110 20 103 15 168 37 229 77 71 46 201 171 254 243 22 30 50 65 63 78
26 24 32 61 12 64 -7 0 -51 3 -98 4 -47 2 -176 7 -287 12 -184 7 -226 12 -211
27 3 3 135 10 294 15 159 6 309 15 334 20 25 5 64 12 87 15 44 7 111 54 153
108 12 15 43 41 68 59 26 17 72 54 103 82 30 28 90 80 132 115 42 35 77 67 77
71 0 11 -24 30 -37 30 -8 0 -42 13 -76 29 -34 16 -72 32 -84 35 -13 4 -23 11
-23 15 0 14 68 20 102 10 58 -16 190 -11 252 11 66 22 95 39 189 108 141 104
397 345 397 374 0 32 -17 36 -332 68 -54 5 -100 10 -103 10 -3 0 -5 5 -5 10 0
6 96 10 268 10 294 0 307 2 430 64 59 30 320 199 487 315 90 63 339 223 359
231 31 12 78 58 71 70 -4 6 -71 10 -166 10 -92 0 -159 4 -159 9 0 13 53 19
254 31 92 6 171 12 175 15 4 2 42 13 85 25 80 21 206 79 241 110 11 10 69 51
128 92 148 100 151 101 300 200 144 95 226 162 214 174 -8 8 -397 -35 -611
-67 -118 -18 -149 -19 -133 -3 11 12 73 22 522 90 55 8 132 19 170 25 116 18
246 75 378 164 136 92 156 106 239 160 59 39 88 68 77 79 -3 3 -66 -3 -140
-14 -74 -11 -144 -20 -157 -20 -38 0 -16 18 31 25 23 3 83 15 132 25 50 10
118 23 152 28 85 14 166 54 309 151 111 76 163 120 180 152 17 35 17 34 -2 53
-13 14 -56 16 -313 16 -164 0 -301 -3 -305 -7z m-858 -444 c-2 -6 -190 -79
-418 -163 -228 -84 -462 -172 -520 -194 -707 -274 -1544 -704 -1998 -1025
-158 -113 -240 -172 -302 -221 -598 -473 -936 -771 -1411 -1245 -371 -371
-592 -611 -930 -1011 -304 -361 -523 -671 -871 -1239 -55 -88 -101 -111 -128
-61 -12 22 16 76 128 252 318 498 541 810 767 1074 425 496 1238 1332 1561
1606 89 75 525 425 695 558 191 149 503 370 719 509 456 295 1095 608 1665
817 50 18 115 42 145 54 231 90 845 296 893 299 5 1 7 -4 5 -10z m-6603 -5430
c126 -39 155 -50 155 -63 0 -17 -21 -36 -40 -36 -25 0 -240 109 -240 121 0 13
23 9 125 -22z"/>
</g>
</svg>
