<?xml version="1.0" standalone="no"?>
<!DOCTYPE svg PUBLIC "-//W3C//DTD SVG 20010904//EN"
 "http://www.w3.org/TR/2001/REC-SVG-20010904/DTD/svg10.dtd">
<svg version="1.0" xmlns="http://www.w3.org/2000/svg"
 width="1519.000000pt" height="1380.000000pt" viewBox="0 0 1519.000000 1380.000000"
 preserveAspectRatio="xMidYMid meet">

<g transform="translate(0.000000,1380.000000) scale(0.100000,-0.100000)"
fill="#000000" stroke="none">
<path d="M11542 12593 c-21 -31 -52 -121 -52 -152 0 -40 18 -20 29 32 21 100
60 156 76 108 6 -20 41 -38 53 -27 3 4 -4 13 -16 21 -11 9 -28 22 -36 30 -21
21 -32 19 -54 -12z"/>
<path d="M11665 12541 c3 -5 13 -10 23 -11 80 -4 105 -9 119 -23 16 -15 14
-18 -19 -32 -43 -17 -57 -49 -34 -74 18 -20 21 -41 5 -41 -6 0 -4 -7 5 -15 20
-20 21 -20 23 21 1 20 13 50 27 69 30 39 34 80 9 93 -26 13 -166 24 -158 13z"/>
<path d="M11481 12323 c-1 -17 -6 -35 -11 -38 -6 -4 -8 -10 -6 -14 8 -12 -63
-143 -96 -178 -17 -17 -64 -46 -104 -63 -41 -18 -74 -37 -74 -41 0 -12 3 -11
36 6 16 8 36 15 44 15 8 0 43 18 77 40 47 29 67 49 80 80 10 22 21 40 25 40 5
0 8 11 8 25 0 14 4 25 9 25 15 0 32 86 22 112 -9 22 -10 21 -10 -9z"/>
<path d="M11765 12300 c-3 -5 -1 -18 4 -27 9 -16 10 -14 11 10 0 28 -5 34 -15
17z"/>
<path d="M11714 12224 c-12 -13 -20 -25 -17 -28 3 -3 15 6 25 20 26 32 20 37
-8 8z"/>
<path d="M11762 12176 c-9 -19 -8 -27 4 -36 12 -11 14 -7 14 24 0 42 -3 44
-18 12z"/>
<path d="M11670 12154 c0 -8 5 -12 10 -9 6 3 10 10 10 16 0 5 -4 9 -10 9 -5 0
-10 -7 -10 -16z"/>
<path d="M11466 12145 c4 -8 1 -15 -5 -15 -6 0 -11 -13 -11 -30 0 -25 6 -33
43 -50 52 -24 100 -16 105 19 4 29 -32 61 -68 61 -15 0 -33 7 -40 15 -7 8 -16
15 -21 15 -5 0 -6 -7 -3 -15z"/>
<path d="M11746 12088 c-13 -65 -16 -97 -7 -102 8 -5 14 14 28 92 6 36 -14 46
-21 10z"/>
<path d="M5073 12093 l-5063 -3 0 -2600 0 -2600 130 0 130 0 2 2468 3 2467
4930 0 4930 0 3 -228 c2 -229 -2 -267 -33 -267 -20 0 -45 -40 -42 -68 2 -26
17 -30 17 -4 0 23 35 56 49 47 6 -3 11 -26 11 -49 0 -66 -12 -136 -21 -130
-15 9 -10 -16 6 -32 19 -20 15 -101 -5 -114 -10 -6 -11 -10 -3 -10 15 0 13 44
19 -505 4 -416 3 -451 -13 -462 -12 -9 -13 -13 -3 -13 7 0 11 -2 8 -6 -3 -3
-2 -19 2 -37 3 -18 4 -58 0 -90 -3 -32 -3 -60 0 -62 4 -2 7 -160 8 -350 0
-348 -3 -382 -35 -340 -12 17 -18 14 -14 -8 1 -4 -6 -10 -14 -13 -8 -4 -15
-17 -15 -31 0 -18 8 -28 34 -38 18 -8 36 -21 39 -29 3 -8 6 -172 7 -365 0
-320 -4 -385 -24 -352 -4 5 -24 12 -45 16 -22 4 -42 13 -45 21 -8 21 -20 17
-33 -12 -16 -34 1 -72 36 -81 14 -3 31 -10 37 -15 7 -5 22 -4 37 1 25 10 26 9
25 -27 -1 -20 2 -45 6 -54 4 -9 6 -150 4 -314 -2 -227 -6 -298 -15 -302 -7 -2
-13 -8 -13 -13 0 -6 5 -7 11 -3 7 4 10 -4 9 -22 -1 -16 -1 -31 0 -34 6 -12 10
-958 4 -1065 l-6 -121 -30 -17 c-38 -22 -36 -60 4 -65 32 -4 34 -35 6 -66 -10
-11 -18 -25 -18 -30 0 -6 8 -1 18 12 10 13 21 20 25 16 8 -8 10 -475 2 -496
-6 -15 -18 -14 -180 17 -38 7 -108 18 -155 25 -47 6 -105 15 -130 20 -25 5
-90 16 -145 25 -55 8 -143 23 -195 31 -52 9 -114 18 -138 19 -24 2 -46 6 -49
9 -4 3 -30 6 -60 6 -29 0 -61 4 -71 9 -9 5 -64 17 -122 26 -57 9 -105 17 -107
19 -1 1 11 34 27 73 93 222 120 495 79 801 -11 80 -10 83 13 101 l23 20 -31
33 c-29 30 -35 49 -64 188 -30 147 -101 447 -115 481 -4 11 14 38 60 85 36 38
65 62 64 54 -3 -35 4 -46 42 -64 30 -14 44 -15 52 -7 6 6 21 11 34 11 13 0 26
7 30 16 8 20 -35 64 -63 64 -12 0 -32 8 -44 18 l-22 18 40 46 c54 63 222 318
222 338 0 5 8 15 18 22 22 15 38 78 20 78 -6 0 -8 -3 -5 -7 4 -3 0 -11 -7 -17
-8 -6 -27 -33 -42 -61 -78 -144 -228 -351 -350 -484 l-59 -64 -58 188 c-50
163 -217 629 -230 642 -5 4 -373 -110 -383 -119 -3 -3 35 -138 85 -300 76
-249 148 -501 241 -838 23 -86 40 -161 44 -191 1 -14 5 -30 9 -35 3 -6 16 -66
28 -133 20 -105 21 -124 8 -132 -12 -8 -12 -10 1 -19 8 -5 15 -17 16 -27 1
-10 4 -33 8 -51 6 -26 4 -32 -9 -32 -8 0 -18 -7 -21 -15 -9 -23 -23 -18 -30
10 -6 23 -24 36 -24 17 0 -9 24 -86 67 -216 23 -72 25 -85 15 -137 -25 -138
-94 -259 -217 -384 -151 -153 -321 -263 -582 -377 -698 -304 -1864 -469 -3133
-444 -1354 26 -2127 203 -2581 588 -132 113 -248 284 -305 450 -50 149 -59
217 -59 468 1 281 15 380 126 851 38 163 69 303 69 311 0 11 -47 27 -180 62
-99 26 -185 44 -190 41 -23 -14 -132 -397 -179 -630 -65 -321 -75 -418 -75
-700 0 -244 1 -268 26 -381 137 -631 589 -1035 1430 -1279 495 -144 1254 -216
2128 -201 1117 19 1835 94 2485 261 636 163 1098 410 1356 723 40 50 76 91 79
91 5 1 22 -43 90 -234 24 -66 46 -124 50 -130 4 -5 11 -25 15 -44 10 -47 40
-112 48 -104 4 3 7 15 7 26 0 14 5 17 17 12 20 -7 64 -16 198 -39 50 -9 141
-25 202 -37 62 -11 116 -18 121 -15 5 3 35 -1 68 -8 32 -8 100 -19 149 -26 50
-7 99 -17 110 -23 10 -5 48 -11 85 -13 109 -6 152 -10 227 -24 86 -16 83 -8
83 -216 0 -129 -7 -172 -25 -144 -3 5 -24 14 -46 20 -21 6 -55 24 -74 41 -33
29 -35 30 -64 15 -17 -10 -55 -16 -91 -16 -65 0 -120 -21 -154 -59 -26 -28
-33 -27 -50 12 -18 44 -85 101 -137 116 -23 7 -53 24 -66 37 -20 20 -28 23
-39 13 -8 -7 -49 -14 -92 -17 -82 -5 -121 -19 -164 -59 -27 -25 -48 -24 -48 3
0 24 -69 92 -106 104 -19 6 -34 18 -34 26 0 8 -5 14 -11 14 -18 0 -4 -105 19
-137 10 -16 22 -36 25 -45 7 -20 27 -25 27 -7 0 6 -5 19 -11 31 -6 11 -8 22
-5 25 9 9 74 -26 89 -47 13 -19 16 -19 43 -5 18 9 56 15 97 15 74 0 123 16
158 51 14 14 24 18 27 11 17 -52 78 -100 169 -133 18 -6 44 -23 58 -36 22 -22
27 -24 41 -12 10 9 54 16 110 20 85 5 96 9 133 38 37 30 42 31 47 14 16 -43
56 -82 101 -99 75 -27 73 -24 73 -150 0 -63 -3 -114 -6 -114 -4 0 -24 16 -45
35 -22 19 -45 35 -52 35 -22 0 -81 32 -97 53 -15 18 -18 18 -63 3 -26 -9 -68
-16 -93 -16 -53 0 -99 -18 -137 -54 -35 -32 -43 -33 -51 -1 -12 46 -72 101
-136 124 -33 12 -66 32 -75 44 -13 19 -18 20 -37 8 -11 -7 -57 -16 -100 -19
-63 -4 -87 -10 -123 -33 -25 -16 -45 -33 -45 -39 0 -5 -7 -10 -15 -10 -8 0
-15 6 -15 13 0 7 -11 29 -25 50 -23 33 -25 41 -15 75 12 46 12 52 0 52 -5 0
-10 -10 -10 -22 0 -13 -7 -32 -15 -42 -29 -38 -15 -100 29 -140 57 -51 104
-86 114 -86 7 0 15 -12 18 -26 5 -19 9 -23 18 -14 7 7 7 13 1 18 -6 4 -30 29
-55 55 -54 58 -47 67 51 67 95 0 126 9 165 45 l35 33 18 -37 c23 -44 44 -63
96 -86 103 -46 125 -58 125 -71 0 -18 10 -17 34 1 13 10 44 15 94 15 80 0 124
15 162 55 l23 24 20 -39 c22 -46 57 -74 119 -96 87 -31 88 -31 88 -149 0 -103
-8 -126 -30 -85 -6 10 -43 35 -83 54 -39 18 -80 43 -91 55 -17 18 -21 19 -39
6 -13 -9 -45 -15 -82 -15 -67 0 -130 -24 -171 -65 -26 -26 -44 -26 -44 1 0 29
-74 96 -139 125 -36 16 -71 37 -78 46 -10 13 -17 14 -40 5 -15 -6 -54 -12 -87
-14 -46 -1 -60 2 -68 15 -5 9 -14 17 -20 17 -12 0 -6 -31 26 -120 13 -36 34
-99 46 -140 19 -65 69 -208 76 -219 2 -1 7 0 13 3 7 5 7 13 1 24 -5 9 -13 31
-18 48 -9 28 -7 35 17 58 33 32 37 32 45 2 8 -34 68 -82 127 -103 29 -10 65
-30 81 -45 28 -26 32 -27 51 -13 14 10 46 15 97 15 78 0 144 22 163 55 12 22
23 18 37 -14 17 -43 49 -68 121 -97 35 -14 70 -33 77 -42 13 -17 18 -212 5
-212 -4 0 -21 13 -38 28 -16 16 -55 39 -85 52 -30 12 -63 32 -73 43 -15 17
-21 18 -43 9 -14 -7 -46 -12 -73 -12 -63 0 -130 -24 -170 -60 -18 -17 -36 -30
-40 -30 -4 0 -13 15 -19 34 -14 38 -83 106 -108 106 -27 0 -78 31 -111 69 -23
26 -32 31 -33 19 0 -20 46 -167 59 -187 12 -18 24 3 16 29 -6 18 -1 17 52 -9
32 -16 68 -32 80 -35 12 -4 31 -18 41 -30 16 -22 20 -22 43 -10 13 7 55 14 94
14 76 0 136 21 169 58 l19 22 19 -40 c23 -45 52 -69 118 -94 92 -36 90 -32 90
-161 0 -62 -3 -116 -7 -118 -5 -3 -51 2 -103 9 -52 8 -124 19 -160 24 -36 5
-92 14 -125 20 -47 9 -174 26 -217 29 -4 1 -12 17 -19 35 -14 40 -32 38 -23
-2 6 -29 54 -178 80 -250 9 -23 19 -40 23 -37 5 2 6 -7 3 -20 -2 -14 0 -25 6
-25 6 0 8 -9 5 -20 -3 -11 0 -20 6 -20 6 0 11 -9 11 -20 0 -11 5 -20 11 -20 5
0 8 -4 5 -9 -10 -15 6 -71 19 -71 8 0 11 -8 8 -19 -3 -11 2 -34 11 -52 9 -18
16 -38 16 -46 0 -8 5 -11 11 -7 7 4 9 21 5 47 l-7 40 21 -24 c12 -13 18 -17
14 -9 -6 12 -5 13 7 3 11 -9 18 -10 27 -1 6 6 18 7 29 3 10 -5 34 -9 53 -11
76 -5 150 -17 150 -25 0 -5 7 -6 15 -3 8 3 31 0 52 -7 21 -7 41 -12 46 -11 14
4 28 -52 22 -85 -4 -23 -11 -33 -23 -32 -10 0 -12 3 -4 6 6 2 10 9 6 14 -7 12
-51 12 -59 0 -4 -8 -28 -8 -70 -1 -5 2 4 6 20 11 30 8 30 8 -5 5 -19 -1 -39
-4 -45 -6 -5 -2 -43 0 -83 4 -56 6 -72 11 -68 22 6 16 -10 19 -19 4 -12 -20
-40 -9 -54 21 -9 20 -17 27 -23 21 -7 -7 -5 -27 8 -61 18 -50 34 -67 34 -35 0
13 7 15 33 10 17 -3 78 -13 133 -21 160 -24 207 -34 216 -48 4 -6 5 -66 2
-132 -4 -106 -8 -127 -34 -180 -35 -73 -43 -102 -32 -108 4 -3 19 22 32 55 21
54 25 58 32 37 5 -13 7 -57 6 -98 -3 -75 -3 -76 -31 -79 -16 -2 -34 1 -41 7
-8 7 -24 7 -47 1 -18 -6 -69 -10 -112 -10 -73 0 -78 1 -89 25 -13 29 -33 34
-25 6 3 -14 -2 -21 -17 -25 -11 -3 -1046 -6 -2298 -6 l-2278 0 0 -130 0 -130
2600 0 2599 0 3 793 c2 574 6 798 14 808 7 8 22 39 35 69 12 30 40 84 61 119
21 34 38 67 38 72 0 20 -17 7 -40 -30 -28 -44 -73 -76 -96 -67 -11 4 -14 27
-14 100 0 92 1 96 31 131 l31 35 21 -41 c11 -22 28 -46 38 -52 11 -7 19 -17
19 -24 0 -20 20 -15 22 5 3 37 -2 70 -22 142 -11 41 -20 83 -20 93 0 9 -4 17
-10 17 -13 0 -13 -13 1 -84 12 -66 6 -81 -20 -47 -15 20 -21 22 -39 12 -48
-25 -52 -18 -52 86 0 95 1 98 32 130 l31 32 17 -31 c21 -40 40 -47 40 -16 0
24 25 129 37 158 3 8 5 19 4 24 -1 5 3 12 9 16 14 9 29 106 23 147 -7 47 -23
41 -23 -8 0 -37 -2 -40 -22 -34 -13 4 -35 19 -50 33 -25 23 -30 24 -52 13 -39
-21 -46 -7 -46 89 l0 89 33 17 c17 9 42 25 53 36 21 19 21 19 43 -17 13 -23
19 -45 15 -60 -7 -27 3 -65 17 -65 5 0 9 19 10 43 0 43 20 162 38 231 5 22 7
44 4 49 -8 13 -30 -43 -38 -96 -10 -65 -20 -76 -42 -49 -18 22 -19 22 -60 6
-73 -29 -74 -26 -72 156 1 132 3 162 16 167 22 8 233 -29 233 -41 -1 -6 -9
-29 -20 -51 -21 -44 -25 -75 -10 -75 6 0 10 8 10 18 0 10 4 22 9 28 5 5 21 41
35 79 15 39 31 79 36 90 5 11 21 49 36 85 16 36 41 86 56 111 15 25 28 52 28
60 0 8 12 47 25 88 28 81 26 131 -2 73 -10 -22 -19 -29 -23 -21 -9 14 -144 39
-171 32 -11 -3 -19 -1 -19 3 0 5 -18 10 -39 10 -22 1 -63 10 -91 19 -39 13
-58 15 -75 7 -21 -10 -24 -8 -30 24 -3 19 -3 43 0 54 5 16 10 17 42 8 20 -5
51 -8 69 -5 18 3 34 1 36 -5 2 -5 28 -11 58 -12 30 -2 75 -8 99 -15 24 -7 70
-13 102 -14 49 -1 59 -4 59 -19 0 -29 14 -21 33 20 10 20 25 49 35 64 9 15 13
30 8 35 -4 4 -11 1 -16 -8 -29 -51 -41 -56 -115 -49 -105 12 -157 20 -190 30
-16 5 -70 14 -120 20 -49 6 -94 15 -98 19 -4 4 -7 41 -5 82 l3 74 32 -2 c43
-4 61 25 34 56 -10 11 -25 21 -33 21 -9 0 -20 6 -26 13 -10 12 -14 681 -5 718
4 15 9 15 45 -3 43 -21 83 -15 102 15 8 12 5 22 -13 41 -13 14 -26 24 -30 23
-18 -5 -72 25 -88 49 -16 25 -18 55 -21 244 -3 236 2 300 23 300 9 0 12 6 8
17 -4 11 -8 13 -11 5 -2 -7 -8 -10 -13 -6 -5 3 -9 90 -9 194 0 167 7 227 23
188 4 -9 6 -8 6 2 1 9 -4 21 -11 28 -7 7 -11 52 -11 125 1 105 3 117 27 156
14 22 22 41 18 41 -5 0 -14 -11 -20 -25 -27 -59 -32 -23 -32 238 0 337 5 391
36 408 32 16 30 31 -6 71 l-31 33 5 315 c5 385 5 393 14 362 7 -23 7 -23 24
-3 10 12 23 18 31 15 20 -7 54 33 39 48 -17 17 -15 28 4 28 8 0 12 5 9 10 -5
8 -11 7 -21 -1 -11 -9 -17 -9 -28 1 -8 6 -28 10 -43 8 l-28 -3 -2 585 c-1 492
1 589 13 607 11 18 11 21 1 17 -11 -4 -14 59 -15 345 -1 193 1 357 4 366 10
24 22 18 29 -15 4 -16 11 -30 17 -30 5 0 8 3 6 8 -3 4 -10 22 -17 39 -7 18
-17 30 -22 27 -15 -9 -10 8 7 27 15 17 15 21 -6 54 -21 34 -22 45 -18 171 2
78 8 138 14 142 15 10 41 97 49 165 11 95 -11 66 -32 -40 l-18 -98 -5 145 -5
145 -135 0 c-74 0 -2413 -1 -5197 -2z m3797 -4423 c0 -5 -4 -10 -10 -10 -5 0
-10 5 -10 10 0 6 5 10 10 10 6 0 10 -4 10 -10z m1556 -1078 c-10 -10 -29 15
-21 28 6 9 10 8 17 -4 6 -10 7 -20 4 -24z m-1951 -220 c-5 -13 -9 -10 -20 12
-19 35 -19 34 3 38 19 4 28 -22 17 -50z m15 -54 c0 -25 -3 -29 -10 -18 -13 20
-13 50 0 50 6 0 10 -15 10 -32z m518 -613 c35 -6 42 -5 42 9 0 23 26 20 44 -5
10 -16 21 -20 37 -16 13 4 28 2 33 -2 17 -13 144 -34 163 -27 9 4 19 2 22 -3
3 -5 26 -11 51 -14 25 -3 74 -10 109 -17 35 -6 69 -9 76 -7 6 3 41 -1 76 -9
128 -29 159 -33 260 -39 98 -6 110 -8 127 -18 7 -5 20 -6 30 -3 11 4 27 -2 41
-15 19 -18 22 -28 16 -58 -9 -46 -10 -47 -40 -27 -14 9 -25 12 -25 6 0 -5 -5
-10 -11 -10 -5 0 -8 4 -4 9 3 6 -18 8 -52 6 -32 -2 -62 0 -68 4 -20 16 -228
58 -325 67 -25 2 -73 9 -108 16 -44 8 -66 9 -70 2 -8 -13 -82 -6 -82 7 0 5
-13 9 -28 9 -16 0 -32 3 -36 7 -9 10 -27 12 -141 18 -55 3 -100 5 -100 6 0 1
-48 6 -130 14 -38 3 -83 8 -100 10 -16 2 -47 4 -68 4 -49 1 -55 19 -23 74 l26
44 107 -18 c60 -9 127 -20 151 -24z m-132 -415 c19 0 48 -7 64 -15 33 -17 200
-45 268 -45 23 0 50 -4 60 -9 69 -35 101 -41 560 -95 19 -3 65 -10 102 -16 38
-6 74 -9 79 -6 5 4 13 1 17 -5 5 -8 8 -8 14 0 4 8 21 9 47 5 36 -5 42 -10 47
-37 10 -49 -3 -97 -25 -97 -11 0 -22 7 -25 15 -4 8 -10 15 -16 15 -5 0 -6 -4
-3 -10 3 -6 -5 -10 -19 -10 -14 0 -28 4 -31 10 -3 5 -19 7 -35 3 -19 -3 -30
-1 -30 6 0 6 12 12 28 12 18 1 12 4 -18 9 -273 44 -295 47 -285 30 12 -19 -21
-10 -38 11 -12 14 -28 20 -50 18 -18 -1 -39 1 -47 4 -19 6 -188 33 -295 47
-44 5 -123 17 -175 25 -108 17 -150 19 -150 7 0 -5 -12 -7 -28 -4 -26 3 -52
38 -52 69 0 7 -3 13 -7 13 -5 0 -9 19 -10 43 -2 32 0 38 8 25 6 -12 22 -18 45
-18z m1904 -131 l-21 -34 7 30 c4 17 12 33 18 37 19 12 18 1 -4 -33z m-50 -99
c0 -5 -5 -10 -11 -10 -5 0 -7 5 -4 10 3 6 8 10 11 10 2 0 4 -4 4 -10z m-179
-30 c19 -6 60 -13 90 -16 30 -3 55 -7 57 -9 5 -5 -9 -70 -18 -85 -7 -11 -20
-12 -77 -1 -47 9 -69 9 -71 2 -2 -6 -11 -11 -19 -11 -13 0 -13 2 -2 17 13 15
11 15 -24 9 -27 -5 -37 -4 -32 3 4 7 -4 11 -19 11 -31 0 -45 38 -27 76 10 22
15 24 58 19 27 -3 64 -10 84 -15z m-30 -850 l32 -29 -21 -56 c-12 -31 -22 -65
-22 -76 0 -23 -13 -25 -30 -4 -10 12 -15 12 -35 -1 -13 -9 -29 -13 -35 -9 -6
3 -10 46 -10 100 0 92 1 95 32 130 l31 36 13 -31 c7 -17 28 -44 45 -60z
m-1142 -25 c13 -37 59 -78 101 -90 41 -12 118 -54 122 -65 2 -8 11 -8 31 -1
16 6 64 13 107 16 83 4 132 22 153 55 16 26 24 25 31 -3 9 -37 64 -85 124
-107 90 -34 92 -38 92 -152 0 -54 -4 -98 -8 -98 -5 0 -17 10 -28 21 -10 12
-51 36 -90 54 -40 18 -77 41 -82 51 -10 18 -12 18 -40 2 -20 -12 -51 -18 -92
-18 -68 0 -115 -17 -151 -56 -25 -26 -49 -32 -49 -11 0 8 -14 33 -30 56 -23
32 -49 50 -104 75 -41 19 -78 42 -84 52 -9 17 -11 17 -47 0 -24 -12 -40 -15
-47 -8 -15 15 -68 173 -62 183 3 5 15 9 27 9 27 0 86 35 93 55 9 24 19 18 33
-20z m1051 -785 c-14 -33 -30 -40 -30 -13 0 18 30 56 38 48 3 -2 -1 -18 -8
-35z m-745 -220 c0 -1 20 -3 45 -6 24 -2 49 -9 54 -14 6 -6 14 -6 22 1 8 7 14
7 18 0 4 -6 20 -8 36 -4 20 4 30 1 30 -6 0 -7 10 -12 23 -11 12 1 24 1 27 0 3
-1 19 -3 35 -5 153 -16 154 -16 160 -46 4 -16 4 -43 0 -60 -7 -29 -9 -31 -43
-25 -19 3 -38 9 -41 13 -3 4 -15 10 -26 11 -11 2 -26 8 -32 14 -7 6 -24 7 -38
4 -14 -4 -25 -2 -25 4 0 5 -7 10 -16 10 -8 0 -12 -4 -9 -10 4 -6 -12 -8 -42
-4 -26 3 -51 10 -54 16 -4 7 -26 9 -53 6 -26 -3 -49 -1 -52 4 -3 5 -13 7 -21
4 -8 -3 -31 1 -51 10 -25 10 -38 11 -40 4 -4 -11 -52 71 -52 88 0 4 33 7 73 6
39 -2 72 -3 72 -4z m5 -381 c0 -6 -4 -7 -10 -4 -5 3 -10 11 -10 16 0 6 5 7 10
4 6 -3 10 -11 10 -16z m7 -41 c-3 -8 -6 -5 -6 6 -1 11 2 17 5 13 3 -3 4 -12 1
-19z"/>
<path d="M10088 2983 c7 -3 16 -2 19 1 4 3 -2 6 -13 5 -11 0 -14 -3 -6 -6z"/>
<path d="M10447 12093 c-4 -3 -7 -20 -7 -37 l1 -31 19 23 c17 20 23 21 62 12
24 -5 98 -10 166 -10 101 0 122 3 122 15 0 12 -17 14 -92 13 -86 -2 -212 7
-249 18 -8 2 -18 1 -22 -3z"/>
<path d="M10871 12091 c-19 -3 -36 -12 -39 -20 -4 -12 6 -13 53 -7 59 7 59 7
100 -34 48 -47 140 -78 163 -56 9 10 -2 15 -38 19 -38 4 -74 20 -105 47 -19
17 -93 61 -98 59 -1 -1 -17 -4 -36 -8z"/>
<path d="M11570 12016 c0 -2 7 -6 15 -10 8 -3 15 -1 15 4 0 6 -7 10 -15 10 -8
0 -15 -2 -15 -4z"/>
<path d="M10570 11995 c0 -8 4 -15 10 -15 5 0 7 7 4 15 -4 8 -8 15 -10 15 -2
0 -4 -7 -4 -15z"/>
<path d="M10830 12000 c0 -5 7 -7 15 -4 8 4 15 8 15 10 0 2 -7 4 -15 4 -8 0
-15 -4 -15 -10z"/>
<path d="M11407 11973 c-4 -3 -7 -11 -7 -17 0 -6 5 -5 12 2 6 6 9 14 7 17 -3
3 -9 2 -12 -2z"/>
<path d="M10590 11961 c0 -5 5 -13 10 -16 6 -3 10 -2 10 4 0 5 -4 13 -10 16
-5 3 -10 2 -10 -4z"/>
<path d="M11610 11961 c0 -5 5 -13 10 -16 6 -3 10 -2 10 4 0 5 -4 13 -10 16
-5 3 -10 2 -10 -4z"/>
<path d="M11723 11930 c-7 -17 -7 -30 1 -43 10 -17 11 -17 14 3 2 11 2 30 -1
43 -4 22 -4 22 -14 -3z"/>
<path d="M11376 11925 c-4 -13 -2 -14 14 -5 23 13 26 20 6 20 -8 0 -16 -7 -20
-15z"/>
<path d="M11117 11911 c-3 -13 -1 -18 9 -14 7 2 10 11 7 19 -7 19 -10 18 -16
-5z"/>
<path d="M10647 11889 c4 -13 8 -18 11 -10 2 7 -1 18 -6 23 -8 8 -9 4 -5 -13z"/>
<path d="M10764 11885 c-9 -14 -14 -28 -11 -31 3 -3 13 8 22 25 19 37 12 41
-11 6z"/>
<path d="M11140 11865 c7 -9 15 -13 17 -11 7 7 -7 26 -19 26 -6 0 -6 -6 2 -15z"/>
<path d="M10627 11838 c-64 -17 -77 -78 -17 -78 28 0 31 -3 25 -22 -4 -13 -15
-35 -26 -50 -11 -16 -16 -28 -12 -28 9 0 53 65 53 78 0 5 11 7 24 5 28 -6 86
25 86 44 0 7 -5 13 -11 13 -6 0 -18 9 -27 19 -22 26 -49 31 -95 19z"/>
<path d="M10730 11830 c0 -5 5 -10 10 -10 6 0 10 5 10 10 0 6 -4 10 -10 10 -5
0 -10 -4 -10 -10z"/>
<path d="M11666 11823 c-6 -14 -5 -15 5 -6 7 7 10 15 7 18 -3 3 -9 -2 -12 -12z"/>
<path d="M11196 11807 c3 -10 9 -15 12 -12 3 3 0 11 -7 18 -10 9 -11 8 -5 -6z"/>
<path d="M11297 11785 c-10 -20 -12 -37 -7 -40 6 -3 10 3 10 14 0 11 7 26 15
35 17 16 19 26 7 26 -5 0 -16 -16 -25 -35z"/>
<path d="M11710 11810 c0 -5 -8 -10 -17 -11 -11 0 -13 -3 -5 -6 6 -2 12 -16
12 -29 0 -27 15 -32 24 -8 9 25 7 64 -4 64 -5 0 -10 -4 -10 -10z"/>
<path d="M11164 11753 c-12 -2 -27 -15 -34 -28 -18 -33 2 -58 39 -51 14 3 37
-1 50 -8 22 -12 28 -11 55 8 17 11 33 22 35 23 2 1 -10 16 -27 33 -30 30 -57
35 -118 23z"/>
<path d="M11686 11667 c-15 -30 -16 -43 -8 -60 6 -12 11 -36 11 -53 0 -17 9
-47 20 -67 27 -48 51 -132 51 -178 0 -45 18 -89 36 -89 13 0 8 37 -7 46 -5 3
-9 31 -9 62 0 42 -9 75 -32 127 -25 56 -33 89 -37 160 l-6 90 -19 -38z"/>
<path d="M10745 11650 c3 -5 8 -10 11 -10 2 0 4 5 4 10 0 6 -5 10 -11 10 -5 0
-7 -4 -4 -10z"/>
<path d="M11162 11615 c-12 -25 -20 -45 -17 -45 6 0 55 73 55 82 0 20 -17 3
-38 -37z"/>
<path d="M10760 11610 c0 -5 5 -10 10 -10 6 0 10 5 10 10 0 6 -4 10 -10 10 -5
0 -10 -4 -10 -10z"/>
<path d="M11290 11576 c0 -9 5 -16 10 -16 6 0 10 4 10 9 0 6 -4 13 -10 16 -5
3 -10 -1 -10 -9z"/>
<path d="M10518 11553 c7 -3 16 -2 19 1 4 3 -2 6 -13 5 -11 0 -14 -3 -6 -6z"/>
<path d="M10796 11547 c3 -10 9 -15 12 -12 3 3 0 11 -7 18 -10 9 -11 8 -5 -6z"/>
<path d="M11310 11530 c0 -5 5 -10 10 -10 6 0 10 5 10 10 0 6 -4 10 -10 10 -5
0 -10 -4 -10 -10z"/>
<path d="M10505 11520 c-3 -5 -1 -10 4 -10 6 0 11 5 11 10 0 6 -2 10 -4 10 -3
0 -8 -4 -11 -10z"/>
<path d="M10820 11494 c0 -10 5 -26 10 -34 8 -11 9 -7 4 15 -8 37 -14 45 -14
19z"/>
<path d="M11665 11459 c-4 -6 -5 -12 -2 -15 2 -3 7 2 10 11 7 17 1 20 -8 4z"/>
<path d="M11057 11443 c-4 -3 -7 -11 -7 -17 0 -6 5 -5 12 2 6 6 9 14 7 17 -3
3 -9 2 -12 -2z"/>
<path d="M10846 11429 c3 -6 1 -15 -6 -19 -8 -5 -10 -19 -6 -41 5 -27 15 -38
47 -53 33 -15 45 -16 69 -6 51 21 49 58 -5 84 -18 9 -40 16 -48 16 -8 0 -20 7
-27 15 -14 17 -35 21 -24 4z"/>
<path d="M11367 11409 c4 -13 8 -18 11 -10 2 7 -1 18 -6 23 -8 8 -9 4 -5 -13z"/>
<path d="M11620 11400 c0 -5 5 -10 10 -10 6 0 10 5 10 10 0 6 -4 10 -10 10 -5
0 -10 -4 -10 -10z"/>
<path d="M11600 11360 c0 -5 5 -10 10 -10 6 0 10 5 10 10 0 6 -4 10 -10 10 -5
0 -10 -4 -10 -10z"/>
<path d="M11396 11345 c4 -9 0 -15 -10 -15 -9 0 -16 -6 -16 -14 0 -29 20 -66
35 -66 9 0 27 -8 41 -17 22 -14 27 -14 34 -2 5 7 12 10 16 6 10 -10 34 12 34
33 0 23 -30 49 -68 56 -17 4 -37 13 -43 20 -15 19 -30 18 -23 -1z"/>
<path d="M10968 11294 c-3 -5 7 -29 23 -54 34 -54 37 -43 5 19 -13 24 -25 40
-28 35z"/>
<path d="M10471 11264 c0 -11 3 -14 6 -6 3 7 2 16 -1 19 -3 4 -6 -2 -5 -13z"/>
<path d="M10791 11234 c0 -11 3 -14 6 -6 3 7 2 16 -1 19 -3 4 -6 -2 -5 -13z"/>
<path d="M11500 11210 c0 -5 7 -10 15 -10 8 0 15 5 15 10 0 6 -7 10 -15 10 -8
0 -15 -4 -15 -10z"/>
<path d="M10050 11194 c0 -8 5 -12 10 -9 6 4 8 11 5 16 -9 14 -15 11 -15 -7z"/>
<path d="M10502 11190 c0 -14 2 -19 5 -12 2 6 2 18 0 25 -3 6 -5 1 -5 -13z"/>
<path d="M10762 11190 c-18 -29 -15 -33 8 -10 21 21 25 30 12 30 -4 0 -13 -9
-20 -20z"/>
<path d="M11531 11185 c0 -5 6 -21 14 -35 8 -14 14 -20 14 -15 0 6 -6 21 -14
35 -8 14 -14 21 -14 15z"/>
<path d="M11335 11160 c-3 -5 -1 -10 4 -10 6 0 11 5 11 10 0 6 -2 10 -4 10 -3
0 -8 -4 -11 -10z"/>
<path d="M10515 11150 c3 -5 11 -10 16 -10 6 0 7 5 4 10 -3 6 -11 10 -16 10
-6 0 -7 -4 -4 -10z"/>
<path d="M10035 11138 c-12 -35 -32 -138 -27 -143 10 -10 22 -5 22 9 0 16 21
26 53 26 12 0 28 9 34 19 10 16 8 23 -12 43 -54 52 -65 59 -70 46z"/>
<path d="M10712 11104 c-12 -19 -19 -34 -15 -34 8 0 46 61 41 66 -2 1 -13 -13
-26 -32z"/>
<path d="M11307 11116 c-4 -10 -1 -13 9 -9 15 6 19 23 5 23 -5 0 -11 -7 -14
-14z"/>
<path d="M11050 11100 c0 -5 5 -10 10 -10 6 0 10 5 10 10 0 6 -4 10 -10 10 -5
0 -10 -4 -10 -10z"/>
<path d="M11774 11063 c-3 -16 -9 -38 -14 -50 -11 -28 -4 -53 23 -74 23 -19
15 -39 -16 -39 -15 0 -18 -3 -11 -10 16 -16 64 9 64 31 0 10 -10 27 -21 38
-18 16 -21 27 -15 60 3 21 9 46 12 55 3 9 1 16 -5 16 -6 0 -13 -12 -17 -27z"/>
<path d="M11060 11066 c0 -2 7 -9 15 -16 12 -10 15 -10 15 4 0 9 -7 16 -15 16
-8 0 -15 -2 -15 -4z"/>
<path d="M10672 11040 c-14 -23 -15 -30 -3 -30 8 0 24 41 18 47 -2 1 -8 -7
-15 -17z"/>
<path d="M11237 10999 c-30 -47 -41 -58 -54 -51 -35 20 -133 -20 -133 -54 0
-15 34 -37 43 -28 10 11 67 -7 67 -21 0 -8 5 -17 12 -21 6 -4 8 -3 5 3 -7 11
40 60 51 55 18 -9 10 18 -8 28 -19 10 -20 14 -7 28 20 24 70 112 66 116 -2 2
-21 -23 -42 -55z"/>
<path d="M10541 11027 c-13 -6 -29 -19 -34 -29 -16 -24 8 -50 40 -42 22 6 24
4 18 -22 -5 -25 -4 -27 7 -14 7 9 26 15 41 15 30 -1 77 32 77 53 0 7 -6 12
-13 12 -8 0 -22 9 -32 20 -21 23 -68 26 -104 7z"/>
<path d="M11590 11020 c0 -5 5 -10 10 -10 6 0 10 5 10 10 0 6 -4 10 -10 10 -5
0 -10 -4 -10 -10z"/>
<path d="M11610 10991 c0 -6 5 -13 10 -16 6 -3 10 1 10 9 0 9 -4 16 -10 16 -5
0 -10 -4 -10 -9z"/>
<path d="M9990 10960 c0 -16 5 -30 10 -30 6 0 10 14 10 30 0 17 -4 30 -10 30
-5 0 -10 -13 -10 -30z"/>
<path d="M9980 10895 c0 -8 5 -15 10 -15 6 0 10 7 10 15 0 8 -4 15 -10 15 -5
0 -10 -7 -10 -15z"/>
<path d="M10543 10888 c-15 -20 -25 -38 -20 -38 3 0 12 11 21 25 17 26 16 35
-1 13z"/>
<path d="M11653 10872 c-23 -9 -45 -23 -48 -31 -12 -30 -15 -101 -5 -101 5 0
10 6 10 14 0 8 13 25 28 38 15 13 31 31 35 41 3 9 18 22 32 27 15 6 23 14 20
20 -8 13 -22 12 -72 -8z"/>
<path d="M9973 10855 c-6 -11 -13 -51 -17 -90 -18 -208 -25 -309 -22 -313 3
-2 9 5 14 15 11 20 46 361 40 390 -4 17 -4 17 -15 -2z"/>
<path d="M10670 10853 c0 -4 5 -15 10 -23 8 -13 10 -13 10 2 0 9 -4 20 -10 23
-5 3 -10 3 -10 -2z"/>
<path d="M11110 10840 c0 -5 5 -10 10 -10 6 0 10 5 10 10 0 6 -4 10 -10 10 -5
0 -10 -4 -10 -10z"/>
<path d="M11057 10829 c7 -7 15 -10 18 -7 3 3 -2 9 -12 12 -14 6 -15 5 -6 -5z"/>
<path d="M10697 10813 c-10 -9 -9 -23 2 -23 5 0 11 7 15 15 5 15 -5 20 -17 8z"/>
<path d="M11100 10809 c0 -5 5 -7 10 -4 6 3 10 8 10 11 0 2 -4 4 -10 4 -5 0
-10 -5 -10 -11z"/>
<path d="M11080 10779 c0 -5 5 -7 10 -4 6 3 10 8 10 11 0 2 -4 4 -10 4 -5 0
-10 -5 -10 -11z"/>
<path d="M11220 10765 c0 -8 4 -15 10 -15 5 0 7 7 4 15 -4 8 -8 15 -10 15 -2
0 -4 -7 -4 -15z"/>
<path d="M10456 10761 c-17 -6 -17 -8 -4 -14 10 -3 19 0 22 9 3 8 4 14 3 13
-1 0 -11 -4 -21 -8z"/>
<path d="M10726 10737 c3 -10 9 -15 12 -12 3 3 0 11 -7 18 -10 9 -11 8 -5 -6z"/>
<path d="M11241 10724 c0 -11 3 -14 6 -6 3 7 2 16 -1 19 -3 4 -6 -2 -5 -13z"/>
<path d="M10437 10723 c-4 -3 -7 -11 -7 -17 0 -6 5 -5 12 2 6 6 9 14 7 17 -3
3 -9 2 -12 -2z"/>
<path d="M10751 10690 c0 -8 4 -24 9 -35 l9 -20 0 20 c0 11 -4 27 -9 35 -9 13
-10 13 -9 0z"/>
<path d="M11011 10671 c-8 -5 -9 -11 -3 -15 5 -3 12 1 16 9 6 17 6 18 -13 6z"/>
<path d="M11583 10631 c-9 -14 -9 -29 -2 -56 6 -20 12 -35 13 -33 7 8 14 108
8 108 -4 0 -13 -9 -19 -19z"/>
<path d="M10985 10629 c-11 -17 1 -21 15 -4 8 9 8 15 2 15 -6 0 -14 -5 -17
-11z"/>
<path d="M10780 10616 c0 -8 -5 -16 -11 -18 -18 -6 -2 -78 17 -78 8 0 25 -7
38 -15 33 -22 86 -3 86 30 0 26 -42 65 -69 65 -9 0 -27 7 -39 16 -19 13 -22
13 -22 0z"/>
<path d="M11295 10608 c4 -13 11 -27 16 -33 5 -5 4 5 -2 23 -12 36 -24 44 -14
10z"/>
<path d="M11540 10589 c0 -5 5 -7 10 -4 6 3 10 8 10 11 0 2 -4 4 -10 4 -5 0
-10 -5 -10 -11z"/>
<path d="M10962 10544 c-7 -8 -8 -14 -3 -14 10 0 25 19 20 25 -2 1 -10 -3 -17
-11z"/>
<path d="M11526 10544 c-5 -14 -4 -15 9 -4 17 14 19 20 6 20 -5 0 -12 -7 -15
-16z"/>
<path d="M11320 10535 c0 -8 -4 -15 -10 -15 -5 0 -10 -16 -10 -35 0 -30 5 -37
40 -54 22 -11 50 -17 62 -14 28 7 58 32 58 48 0 19 -43 52 -77 60 -18 3 -35
11 -38 16 -9 14 -25 11 -25 -6z"/>
<path d="M11573 10485 c-16 -31 -26 -112 -13 -120 6 -4 10 4 10 18 0 13 5 38
11 55 6 17 9 39 7 49 -4 17 -5 16 -15 -2z"/>
<path d="M10890 10480 c0 -5 5 -10 10 -10 6 0 10 5 10 10 0 6 -4 10 -10 10 -5
0 -10 -4 -10 -10z"/>
<path d="M11505 10470 c-3 -5 -1 -10 4 -10 6 0 11 5 11 10 0 6 -2 10 -4 10 -3
0 -8 -4 -11 -10z"/>
<path d="M10106 10445 c-9 -26 -7 -32 5 -12 6 10 9 21 6 23 -2 3 -7 -2 -11
-11z"/>
<path d="M9920 10406 c0 -20 5 -36 10 -36 6 0 10 13 10 29 0 17 -4 33 -10 36
-6 4 -10 -8 -10 -29z"/>
<path d="M10716 10423 c-6 -14 -5 -15 5 -6 7 7 10 15 7 18 -3 3 -9 -2 -12 -12z"/>
<path d="M10930 10410 c6 -11 12 -20 14 -20 2 0 2 9 -1 20 -3 11 -9 20 -15 20
-5 0 -4 -9 2 -20z"/>
<path d="M10070 10378 c-21 -35 -18 -53 4 -22 15 19 27 54 20 54 -2 0 -13 -14
-24 -32z"/>
<path d="M10426 10395 c-9 -26 -7 -32 5 -12 6 10 9 21 6 23 -2 3 -7 -2 -11
-11z"/>
<path d="M11425 10400 c-3 -5 1 -10 10 -10 9 0 13 5 10 10 -3 6 -8 10 -10 10
-2 0 -7 -4 -10 -10z"/>
<path d="M10681 10373 l-13 -28 21 22 c23 24 26 33 13 33 -5 0 -14 -12 -21
-27z"/>
<path d="M11450 10371 c0 -18 41 -104 46 -98 3 2 -7 28 -21 58 -14 30 -25 48
-25 40z"/>
<path d="M10440 10361 c0 -5 7 -11 14 -14 10 -4 13 -1 9 9 -6 15 -23 19 -23 5z"/>
<path d="M11257 10353 c-4 -3 -7 -11 -7 -17 0 -6 5 -5 12 2 6 6 9 14 7 17 -3
3 -9 2 -12 -2z"/>
<path d="M9906 10333 c-14 -51 -16 -84 -7 -100 8 -16 10 -14 16 10 7 28 7 28
29 9 27 -25 70 -25 92 -1 14 15 15 22 6 31 -19 19 -14 31 9 25 16 -4 18 -3 8
9 -6 7 -16 11 -22 7 -6 -4 -33 -7 -59 -7 -39 -1 -48 2 -48 16 0 23 -17 23 -24
1z"/>
<path d="M10971 10334 c0 -11 3 -14 6 -6 3 7 2 16 -1 19 -3 4 -6 -2 -5 -13z"/>
<path d="M11553 10261 c5 -81 4 -89 -11 -84 -14 5 -15 3 -4 -8 17 -19 15 -95
-5 -125 -13 -20 -14 -32 -5 -60 6 -19 6 -34 1 -34 -5 0 -4 -9 3 -20 12 -19 14
-17 21 22 4 24 10 54 13 68 9 37 15 260 9 298 -3 17 -11 32 -17 32 -8 0 -9
-27 -5 -89z"/>
<path d="M10649 10312 c-8 -15 -20 -33 -26 -40 -7 -7 -13 -18 -13 -24 0 -6 8
0 18 13 25 36 44 70 39 75 -2 2 -10 -8 -18 -24z"/>
<path d="M11226 10304 c-8 -22 -4 -25 11 -9 7 8 9 16 4 19 -5 3 -12 -1 -15
-10z"/>
<path d="M10976 10294 c-4 -9 -4 -19 -1 -22 2 -3 7 3 11 12 4 9 4 19 1 22 -2
3 -7 -3 -11 -12z"/>
<path d="M10996 10261 c-3 -5 1 -11 9 -15 8 -3 15 -1 15 4 0 13 -18 22 -24 11z"/>
<path d="M10472 10237 c-53 -16 -57 -77 -6 -77 18 0 24 -5 22 -17 -3 -14 4
-17 42 -14 56 3 80 24 80 69 0 29 -2 32 -14 23 -12 -10 -19 -8 -35 8 -23 23
-39 24 -89 8z"/>
<path d="M11186 10233 c-6 -14 -5 -15 5 -6 7 7 10 15 7 18 -3 3 -9 -2 -12 -12z"/>
<path d="M11516 10214 c-4 -9 -4 -19 -1 -22 2 -3 7 3 11 12 4 9 4 19 1 22 -2
3 -7 -3 -11 -12z"/>
<path d="M9881 10193 c-1 -12 4 -25 9 -28 12 -7 12 2 0 30 -8 19 -9 19 -9 -2z"/>
<path d="M11156 10185 c-9 -14 -13 -25 -8 -25 5 0 14 11 20 25 6 14 10 25 8
25 -2 0 -11 -11 -20 -25z"/>
<path d="M11032 10136 c-57 -20 -70 -76 -17 -76 19 0 25 -5 25 -22 0 -20 1
-20 18 -5 10 10 27 17 38 17 26 0 49 37 34 55 -8 9 -8 15 0 20 5 3 10 11 10
17 0 6 -6 6 -15 -2 -12 -10 -19 -10 -27 -2 -14 14 -23 14 -66 -2z"/>
<path d="M9869 10138 c0 -2 -2 -12 -4 -23 -2 -11 -11 -51 -20 -89 -15 -68 -13
-95 5 -66 6 8 10 25 10 38 0 13 4 31 9 40 15 30 24 102 12 102 -6 0 -11 -1
-12 -2z"/>
<path d="M10050 10129 c0 -5 5 -7 10 -4 6 3 10 8 10 11 0 2 -4 4 -10 4 -5 0
-10 -5 -10 -11z"/>
<path d="M10066 10102 c-2 -4 -1 -14 5 -22 7 -12 9 -10 9 8 0 23 -5 28 -14 14z"/>
<path d="M10456 10078 l-17 -33 20 24 c18 20 27 41 18 41 -1 0 -11 -15 -21
-32z"/>
<path d="M10600 10040 c0 -5 5 -10 11 -10 5 0 7 5 4 10 -3 6 -8 10 -11 10 -2
0 -4 -4 -4 -10z"/>
<path d="M10423 10025 c-3 -9 -3 -18 -1 -21 3 -3 8 4 11 16 6 23 -1 27 -10 5z"/>
<path d="M10627 10003 c-4 -3 -7 -11 -7 -17 0 -6 5 -5 12 2 6 6 9 14 7 17 -3
3 -9 2 -12 -2z"/>
<path d="M11015 9978 l-16 -33 20 25 c20 24 26 40 16 40 -2 0 -12 -15 -20 -32z"/>
<path d="M11135 9950 c3 -5 8 -10 11 -10 2 0 4 5 4 10 0 6 -5 10 -11 10 -5 0
-7 -4 -4 -10z"/>
<path d="M9822 9931 c2 -7 7 -12 11 -12 12 1 9 15 -3 20 -7 2 -11 -2 -8 -8z"/>
<path d="M11156 9922 c-2 -4 -1 -14 5 -22 7 -12 9 -10 9 8 0 23 -5 28 -14 14z"/>
<path d="M10958 9885 c-25 -34 -22 -43 3 -11 12 15 20 29 18 31 -2 1 -12 -7
-21 -20z"/>
<path d="M10676 9880 c3 -14 11 -32 16 -40 6 -10 7 -7 2 10 -3 14 -11 32 -16
40 -6 10 -7 7 -2 -10z"/>
<path d="M9805 9853 c-5 -21 -9 -43 -11 -49 -1 -6 -9 -37 -18 -68 -9 -31 -15
-57 -14 -59 2 -2 -3 -11 -11 -20 -15 -18 -7 -52 9 -42 6 4 10 12 9 18 -2 12 5
35 22 72 9 20 39 150 39 173 0 28 -18 9 -25 -25z"/>
<path d="M11531 9853 c0 -5 4 -17 9 -28 8 -18 9 -17 9 8 1 15 -3 27 -9 27 -5
0 -10 -3 -9 -7z"/>
<path d="M10910 9814 c0 -8 5 -12 10 -9 6 3 10 10 10 16 0 5 -4 9 -10 9 -5 0
-10 -7 -10 -16z"/>
<path d="M10699 9800 c-17 -18 -32 -73 -18 -65 4 3 23 -3 42 -14 20 -11 44
-17 55 -15 12 4 22 0 25 -10 4 -9 11 -16 17 -16 6 0 9 4 5 9 -3 5 -1 12 5 16
33 20 -8 78 -65 91 -16 3 -34 10 -40 14 -5 4 -17 -1 -26 -10z"/>
<path d="M11221 9773 c22 -43 24 -60 7 -65 -7 -3 -9 -14 -4 -32 13 -53 122
-77 150 -33 14 22 -13 48 -69 66 -47 16 -59 27 -72 66 -5 16 -14 30 -20 32 -6
2 -3 -13 8 -34z"/>
<path d="M11490 9801 c0 -6 -10 -16 -22 -21 -23 -9 -23 -9 -2 -9 20 -1 41 26
29 37 -3 3 -5 0 -5 -7z"/>
<path d="M11550 9746 c0 -8 5 -18 10 -21 6 -3 10 3 10 14 0 12 -4 21 -10 21
-5 0 -10 -6 -10 -14z"/>
<path d="M11446 9734 c-5 -14 -4 -15 9 -4 17 14 19 20 6 20 -5 0 -12 -7 -15
-16z"/>
<path d="M10096 9725 c-3 -8 -1 -15 4 -15 6 0 10 7 10 15 0 8 -2 15 -4 15 -2
0 -6 -7 -10 -15z"/>
<path d="M9811 9684 c0 -11 3 -14 6 -6 3 7 2 16 -1 19 -3 4 -6 -2 -5 -13z"/>
<path d="M11561 9683 c0 -10 4 -27 8 -37 11 -28 25 -2 17 30 -7 28 -26 33 -25
7z"/>
<path d="M10066 9675 c-4 -13 -2 -14 14 -5 23 13 26 20 6 20 -8 0 -16 -7 -20
-15z"/>
<path d="M10831 9659 c-1 -8 6 -24 15 -35 15 -19 15 -19 6 1 -5 11 -12 27 -15
35 -5 13 -6 13 -6 -1z"/>
<path d="M9820 9650 c0 -5 5 -10 10 -10 6 0 10 5 10 10 0 6 -4 10 -10 10 -5 0
-10 -4 -10 -10z"/>
<path d="M10637 9653 c-4 -3 -7 -11 -7 -17 0 -6 5 -5 12 2 6 6 9 14 7 17 -3 3
-9 2 -12 -2z"/>
<path d="M11205 9630 c-3 -5 -1 -10 4 -10 6 0 11 5 11 10 0 6 -2 10 -4 10 -3
0 -8 -4 -11 -10z"/>
<path d="M10606 9605 c-3 -9 0 -15 9 -15 16 0 20 16 6 24 -5 3 -11 -1 -15 -9z"/>
<path d="M11355 9600 c-3 -5 1 -10 10 -10 9 0 13 5 10 10 -3 6 -8 10 -10 10
-2 0 -7 -4 -10 -10z"/>
<path d="M9719 9557 c-28 -70 -32 -81 -34 -97 -1 -8 -4 -19 -6 -25 -2 -5 1
-11 6 -12 6 -2 10 0 11 5 0 4 3 14 7 22 20 52 47 132 47 140 0 24 -16 6 -31
-33z"/>
<path d="M9881 9584 c0 -11 3 -14 6 -6 3 7 2 16 -1 19 -3 4 -6 -2 -5 -13z"/>
<path d="M10005 9570 c-3 -5 -1 -10 4 -10 6 0 11 5 11 10 0 6 -2 10 -4 10 -3
0 -8 -4 -11 -10z"/>
<path d="M11380 9565 c1 -11 7 -29 15 -39 19 -26 19 -6 0 30 -12 23 -15 25
-15 9z"/>
<path d="M11186 9555 c-3 -8 -1 -15 4 -15 6 0 10 7 10 15 0 8 -2 15 -4 15 -2
0 -6 -7 -10 -15z"/>
<path d="M11578 9532 c-9 -15 -19 -43 -23 -62 -3 -19 -15 -62 -25 -95 -10 -33
-21 -72 -24 -87 -4 -16 -13 -28 -21 -28 -8 0 -21 -13 -29 -29 -14 -26 -14 -30
4 -46 11 -10 16 -23 13 -29 -4 -6 -9 -28 -10 -49 -2 -21 -8 -47 -14 -59 -6
-11 -7 -18 -1 -14 5 3 12 -24 15 -66 3 -39 11 -76 17 -82 8 -8 10 27 9 124 -2
109 1 141 15 167 9 18 15 36 14 40 -3 14 15 87 29 121 8 19 13 41 12 50 -1 10
0 24 3 32 17 44 40 132 36 135 -2 3 -11 -8 -20 -23z"/>
<path d="M9844 9533 c-29 -5 -49 -50 -32 -70 6 -8 19 -12 29 -10 9 3 23 1 30
-4 10 -6 11 -9 2 -9 -7 0 -13 -7 -13 -16 0 -9 5 -12 11 -8 6 4 29 8 51 9 24 2
44 10 53 21 16 22 20 74 5 74 -5 0 -10 -5 -10 -12 0 -6 -10 -2 -23 10 -22 21
-51 25 -103 15z"/>
<path d="M10897 9513 c-4 -3 -7 -11 -7 -17 0 -6 5 -5 12 2 6 6 9 14 7 17 -3 3
-9 2 -12 -2z"/>
<path d="M11157 9513 c-12 -12 -7 -22 8 -17 8 4 15 10 15 15 0 11 -14 12 -23
2z"/>
<path d="M10430 9491 c0 -6 4 -13 10 -16 6 -3 7 1 4 9 -7 18 -14 21 -14 7z"/>
<path d="M11410 9491 c0 -5 5 -13 10 -16 6 -3 10 -2 10 4 0 5 -4 13 -10 16 -5
3 -10 2 -10 -4z"/>
<path d="M10910 9471 c0 -5 5 -13 10 -16 6 -3 10 -2 10 4 0 5 -4 13 -10 16 -5
3 -10 2 -10 -4z"/>
<path d="M10520 9459 c0 -5 5 -7 10 -4 6 3 10 8 10 11 0 2 -4 4 -10 4 -5 0
-10 -5 -10 -11z"/>
<path d="M11446 9414 c-4 -9 -4 -19 -1 -22 2 -3 7 3 11 12 4 9 4 19 1 22 -2 3
-7 -3 -11 -12z"/>
<path d="M11086 9385 c-9 -14 -13 -25 -9 -25 10 0 36 40 30 46 -2 3 -12 -7
-21 -21z"/>
<path d="M9845 9386 c-23 -25 -26 -40 -4 -19 12 12 21 24 18 27 -2 2 -9 -1
-14 -8z"/>
<path d="M9660 9378 c0 -7 -7 -26 -15 -42 -8 -15 -12 -32 -9 -37 9 -14 24 0
17 16 -3 8 -1 15 5 15 13 0 22 49 11 56 -5 3 -9 -1 -9 -8z"/>
<path d="M11462 9378 c2 -6 10 -14 16 -16 7 -2 10 2 6 12 -7 18 -28 22 -22 4z"/>
<path d="M10945 9350 c-4 -6 -10 -8 -15 -5 -5 3 -17 -6 -26 -20 -13 -21 -14
-28 -3 -41 8 -9 21 -13 35 -10 13 4 26 2 29 -4 3 -5 1 -10 -4 -10 -6 0 -11 -7
-11 -15 0 -17 16 -21 22 -5 2 5 17 11 33 12 46 3 75 26 75 59 0 15 -5 31 -12
35 -8 5 -9 2 -5 -9 9 -23 -6 -21 -28 3 -19 21 -79 28 -90 10z"/>
<path d="M9980 9331 c0 -5 5 -13 10 -16 6 -3 10 -2 10 4 0 5 -4 13 -10 16 -5
3 -10 2 -10 -4z"/>
<path d="M10000 9289 c0 -5 5 -7 10 -4 6 3 10 8 10 11 0 2 -4 4 -10 4 -5 0
-10 -5 -10 -11z"/>
<path d="M4510 9274 c-93 -29 -184 -123 -212 -218 -7 -23 -12 -73 -12 -112 1
-130 73 -237 199 -296 165 -77 367 -6 450 158 27 52 30 69 30 149 0 84 -2 95
-34 153 -66 121 -169 183 -304 181 -40 0 -92 -7 -117 -15z"/>
<path d="M5464 9276 c-95 -30 -188 -122 -220 -218 -24 -73 -16 -187 19 -254
34 -67 113 -137 185 -164 84 -32 192 -30 265 3 179 82 252 289 163 464 -32 65
-122 146 -182 167 -57 19 -172 20 -230 2z"/>
<path d="M9620 9276 c0 -8 5 -18 10 -21 6 -3 10 1 10 9 0 8 -4 18 -10 21 -5 3
-10 -1 -10 -9z"/>
<path d="M9760 9260 c-8 -5 -12 -11 -9 -14 2 -3 11 -1 19 4 8 5 12 11 9 14 -2
3 -11 1 -19 -4z"/>
<path d="M10515 9250 c3 -5 11 -10 16 -10 6 0 7 5 4 10 -3 6 -11 10 -16 10 -6
0 -7 -4 -4 -10z"/>
<path d="M9567 9162 c-21 -42 -38 -83 -37 -89 0 -18 20 -16 20 2 0 18 11 19
42 4 16 -7 32 -7 51 0 36 14 35 49 -2 87 -21 22 -27 34 -20 45 12 20 11 29 -3
28 -7 0 -30 -35 -51 -77z"/>
<path d="M9741 9214 c0 -11 3 -14 6 -6 3 7 2 16 -1 19 -3 4 -6 -2 -5 -13z"/>
<path d="M10928 9198 c-25 -31 -23 -46 2 -18 11 13 20 27 20 32 0 12 -3 10
-22 -14z"/>
<path d="M10057 9169 c4 -13 8 -18 11 -10 2 7 -1 18 -6 23 -8 8 -9 4 -5 -13z"/>
<path d="M10895 9139 c-4 -6 -5 -12 -2 -15 2 -3 7 2 10 11 7 17 1 20 -8 4z"/>
<path d="M11091 9114 c0 -11 3 -14 6 -6 3 7 2 16 -1 19 -3 4 -6 -2 -5 -13z"/>
<path d="M10591 9086 c7 -15 15 -23 17 -16 3 7 -3 19 -13 28 -15 16 -16 15 -4
-12z"/>
<path d="M10858 9088 c-20 -20 -22 -28 -8 -28 9 0 35 39 28 44 -2 2 -11 -6
-20 -16z"/>
<path d="M9657 9064 c-3 -5 1 -15 9 -22 16 -14 18 -5 5 17 -5 7 -11 9 -14 5z"/>
<path d="M10617 9031 c3 -12 1 -21 -6 -21 -6 0 -11 -11 -11 -25 0 -14 5 -25
10 -25 6 0 10 -7 10 -15 0 -8 7 -15 16 -15 9 0 29 -8 45 -17 20 -12 32 -14 37
-7 4 6 15 13 25 17 39 15 2 70 -56 81 -17 3 -41 16 -53 27 l-23 21 6 -21z"/>
<path d="M10826 9035 c-3 -8 -1 -15 4 -15 6 0 10 7 10 15 0 8 -2 15 -4 15 -2
0 -6 -7 -10 -15z"/>
<path d="M9692 8990 c7 -10 14 -18 15 -16 6 6 -9 36 -18 36 -5 0 -4 -9 3 -20z"/>
<path d="M11145 8990 c4 -14 12 -29 17 -35 7 -7 8 -2 3 15 -4 14 -12 30 -17
35 -7 7 -8 2 -3 -15z"/>
<path d="M9509 8985 c-4 -15 -7 -22 -17 -48 -7 -16 -12 -31 -12 -33 0 -7 -38
-94 -51 -117 -5 -10 -7 -22 -4 -27 4 -6 1 -10 -4 -10 -6 0 -11 -7 -11 -16 0
-8 -9 -32 -20 -52 -32 -59 -90 -194 -90 -208 0 -7 -4 -14 -8 -16 -5 -1 -23
-41 -42 -88 -18 -47 -37 -89 -42 -94 -12 -15 -10 -26 7 -26 8 0 15 4 15 10 0
5 12 35 26 67 14 32 32 74 41 93 46 106 56 128 73 165 44 94 60 132 60 143 0
7 4 20 10 30 5 9 26 58 46 107 21 50 41 95 46 101 4 6 5 14 1 17 -8 8 -22 9
-24 2z"/>
<path d="M11400 8980 c-9 -6 -10 -10 -3 -10 6 0 15 5 18 10 8 12 4 12 -15 0z"/>
<path d="M11376 8934 c-5 -14 -4 -15 9 -4 17 14 19 20 6 20 -5 0 -12 -7 -15
-16z"/>
<path d="M10016 8931 c-4 -7 -5 -15 -2 -18 9 -9 19 4 14 18 -4 11 -6 11 -12 0z"/>
<path d="M11175 8930 c3 -6 -1 -13 -9 -16 -36 -14 -7 -65 55 -97 39 -20 81
-12 92 17 8 19 -38 76 -61 76 -10 0 -30 7 -46 15 -33 18 -39 19 -31 5z"/>
<path d="M10740 8890 c0 -5 5 -10 10 -10 6 0 10 5 10 10 0 6 -4 10 -10 10 -5
0 -10 -4 -10 -10z"/>
<path d="M9990 8880 c0 -5 7 -7 15 -4 8 4 15 8 15 10 0 2 -7 4 -15 4 -8 0 -15
-4 -15 -10z"/>
<path d="M9740 8870 c0 -5 5 -10 11 -10 5 0 7 5 4 10 -3 6 -8 10 -11 10 -2 0
-4 -4 -4 -10z"/>
<path d="M10571 8834 c0 -11 3 -14 6 -6 3 7 2 16 -1 19 -3 4 -6 -2 -5 -13z"/>
<path d="M9760 8830 c0 -5 5 -10 10 -10 6 0 10 5 10 10 0 6 -4 10 -10 10 -5 0
-10 -4 -10 -10z"/>
<path d="M9956 8825 c-9 -26 -7 -32 5 -12 6 10 9 21 6 23 -2 3 -7 -2 -11 -11z"/>
<path d="M10780 8835 c0 -5 5 -17 10 -25 5 -8 10 -10 10 -5 0 6 -5 17 -10 25
-5 8 -10 11 -10 5z"/>
<path d="M11150 8819 c0 -5 5 -7 10 -4 6 3 10 8 10 11 0 2 -4 4 -10 4 -5 0
-10 -5 -10 -11z"/>
<path d="M10547 8803 c-12 -12 -7 -22 8 -17 8 4 15 10 15 15 0 11 -14 12 -23
2z"/>
<path d="M11295 8790 c-3 -5 1 -10 10 -10 9 0 13 5 10 10 -3 6 -8 10 -10 10
-2 0 -7 -4 -10 -10z"/>
<path d="M9926 8781 c-4 -7 -5 -15 -2 -18 9 -9 19 4 14 18 -4 11 -6 11 -12 0z"/>
<path d="M11473 8754 c-3 -8 -1 -25 5 -37 9 -19 10 -18 10 16 -1 40 -5 46 -15
21z"/>
<path d="M11120 8734 c0 -8 5 -12 10 -9 6 3 10 10 10 16 0 5 -4 9 -10 9 -5 0
-10 -7 -10 -16z"/>
<path d="M11330 8733 c0 -4 5 -15 10 -23 8 -13 10 -13 10 2 0 9 -4 20 -10 23
-5 3 -10 3 -10 -2z"/>
<path d="M9804 8717 c-53 -12 -80 -51 -50 -73 11 -7 23 -11 28 -8 5 3 12 -3
15 -15 6 -25 18 -27 27 -6 3 8 16 15 29 15 36 0 53 25 38 53 -19 36 -41 44
-87 34z"/>
<path d="M9890 8716 c0 -9 5 -16 10 -16 6 0 10 4 10 9 0 6 -4 13 -10 16 -5 3
-10 -1 -10 -9z"/>
<path d="M10830 8704 c0 -8 5 -12 10 -9 6 4 8 11 5 16 -9 14 -15 11 -15 -7z"/>
<path d="M10467 8663 c-16 -25 -25 -48 -22 -51 3 -3 6 -3 8 -1 20 35 48 92 45
94 -2 2 -16 -17 -31 -42z"/>
<path d="M11105 8700 c-3 -5 1 -10 9 -10 9 0 16 5 16 10 0 6 -4 10 -9 10 -6 0
-13 -4 -16 -10z"/>
<path d="M10850 8660 c0 -5 5 -10 10 -10 6 0 10 5 10 10 0 6 -4 10 -10 10 -5
0 -10 -4 -10 -10z"/>
<path d="M11476 8614 c-4 -9 -4 -19 -1 -22 2 -3 7 3 11 12 4 9 4 19 1 22 -2 3
-7 -3 -11 -12z"/>
<path d="M10905 8600 c3 -5 8 -10 11 -10 2 0 4 5 4 10 0 6 -5 10 -11 10 -5 0
-7 -4 -4 -10z"/>
<path d="M11026 8568 l-19 -33 22 23 c12 12 21 27 19 33 -2 5 -12 -5 -22 -23z"/>
<path d="M9380 8570 c0 -5 5 -10 10 -10 6 0 10 5 10 10 0 6 -4 10 -10 10 -5 0
-10 -4 -10 -10z"/>
<path d="M9776 8564 c-9 -24 -2 -26 12 -4 7 11 8 20 3 20 -5 0 -12 -7 -15 -16z"/>
<path d="M11405 8560 c3 -5 8 -10 11 -10 2 0 4 5 4 10 0 6 -5 10 -11 10 -5 0
-7 -4 -4 -10z"/>
<path d="M11487 8563 c-4 -4 -4 -28 -1 -54 l6 -47 -41 -13 c-24 -7 -49 -22
-56 -33 -13 -17 -13 -22 1 -37 9 -10 22 -15 31 -12 9 4 16 -2 20 -16 3 -11 9
-21 14 -21 5 0 9 -12 9 -27 1 -21 3 -24 9 -13 14 24 43 148 37 158 -3 5 -8 33
-11 63 -7 58 -8 62 -18 52z"/>
<path d="M10881 8545 c-59 -21 -66 -75 -9 -75 24 0 28 -3 23 -19 -5 -18 -2
-19 42 -14 58 6 83 26 83 65 0 25 -3 28 -20 23 -11 -3 -20 -2 -20 3 0 9 -45
33 -58 31 -4 -1 -22 -7 -41 -14z"/>
<path d="M9890 8541 c0 -5 7 -14 15 -21 12 -10 15 -10 15 3 0 8 -7 17 -15 21
-8 3 -15 2 -15 -3z"/>
<path d="M9410 8525 c0 -5 5 -17 10 -25 5 -8 10 -10 10 -5 0 6 -5 17 -10 25
-5 8 -10 11 -10 5z"/>
<path d="M9927 8503 c-4 -3 -7 -11 -7 -17 0 -6 5 -5 12 2 6 6 9 14 7 17 -3 3
-9 2 -12 -2z"/>
<path d="M9441 8460 c-1 -18 16 -46 23 -40 2 3 -2 16 -9 30 -8 15 -14 19 -14
10z"/>
<path d="M10456 8445 c4 -8 8 -15 10 -15 2 0 4 7 4 15 0 8 -4 15 -10 15 -5 0
-7 -7 -4 -15z"/>
<path d="M9700 8440 c-13 -8 -12 -10 3 -10 9 0 17 5 17 10 0 12 -1 12 -20 0z"/>
<path d="M10470 8411 c0 -6 5 -13 10 -16 6 -3 10 1 10 9 0 9 -4 16 -10 16 -5
0 -10 -4 -10 -9z"/>
<path d="M10865 8390 c-9 -16 -14 -30 -12 -30 2 0 13 14 25 30 13 17 18 30 13
30 -6 0 -17 -13 -26 -30z"/>
<path d="M10950 8416 c0 -2 7 -9 15 -16 13 -11 14 -10 9 4 -5 14 -24 23 -24
12z"/>
<path d="M9675 8399 c-11 -17 1 -21 15 -4 8 9 8 15 2 15 -6 0 -14 -5 -17 -11z"/>
<path d="M9960 8404 c0 -6 7 -19 15 -30 8 -10 14 -14 14 -9 0 6 -6 19 -14 29
-8 11 -15 15 -15 10z"/>
<path d="M9470 8385 c0 -8 -4 -15 -10 -15 -16 0 -11 -46 6 -61 16 -13 24 -16
79 -26 36 -7 52 -22 60 -56 4 -15 14 -32 23 -39 9 -7 13 -8 11 -3 -28 52 -40
91 -36 113 6 32 -31 72 -67 72 -13 0 -31 7 -40 15 -8 8 -17 15 -20 15 -3 0 -6
-7 -6 -15z"/>
<path d="M10030 8360 c-9 -6 -10 -10 -3 -10 6 0 15 5 18 10 8 12 4 12 -15 0z"/>
<path d="M10500 8355 c0 -5 5 -17 10 -25 5 -8 10 -10 10 -5 0 6 -5 17 -10 25
-5 8 -10 11 -10 5z"/>
<path d="M11010 8346 c0 -9 5 -16 10 -16 6 0 10 4 10 9 0 6 -4 13 -10 16 -5 3
-10 -1 -10 -9z"/>
<path d="M9655 8320 c-3 -5 -1 -10 4 -10 6 0 11 5 11 10 0 6 -2 10 -4 10 -3 0
-8 -4 -11 -10z"/>
<path d="M11030 8306 c0 -9 5 -16 10 -16 6 0 10 4 10 9 0 6 -4 13 -10 16 -5 3
-10 -1 -10 -9z"/>
<path d="M11435 8310 c-3 -5 -1 -10 4 -10 6 0 11 5 11 10 0 6 -2 10 -4 10 -3
0 -8 -4 -11 -10z"/>
<path d="M10530 8288 c0 -9 5 -20 10 -23 13 -8 13 5 0 25 -8 13 -10 13 -10 -2z"/>
<path d="M11407 8270 c-3 -11 -3 -20 -1 -20 2 0 8 9 14 20 6 11 7 20 2 20 -6
0 -12 -9 -15 -20z"/>
<path d="M10785 8270 c-3 -5 -2 -10 4 -10 5 0 13 5 16 10 3 6 2 10 -4 10 -5 0
-13 -4 -16 -10z"/>
<path d="M10765 8229 c-11 -17 1 -21 15 -4 8 9 8 15 2 15 -6 0 -14 -5 -17 -11z"/>
<path d="M9406 8213 c-6 -14 -5 -15 5 -6 7 7 10 15 7 18 -3 3 -9 -2 -12 -12z"/>
<path d="M10560 8215 c0 -8 -4 -15 -10 -15 -5 0 -10 -6 -10 -13 0 -31 26 -64
63 -80 33 -14 44 -15 66 -4 14 7 27 19 29 28 4 24 -41 65 -81 73 -20 4 -37 11
-37 16 0 6 -4 10 -10 10 -5 0 -10 -7 -10 -15z"/>
<path d="M10730 8199 c0 -5 5 -7 10 -4 6 3 10 8 10 11 0 2 -4 4 -10 4 -5 0
-10 -5 -10 -11z"/>
<path d="M11080 8205 c0 -5 5 -17 10 -25 5 -8 10 -10 10 -5 0 6 -5 17 -10 25
-5 8 -10 11 -10 5z"/>
<path d="M9385 8180 c-3 -5 3 -10 15 -10 12 0 18 5 15 10 -3 6 -10 10 -15 10
-5 0 -12 -4 -15 -10z"/>
<path d="M11455 8159 c-6 -28 -1 -48 10 -37 3 2 8 19 11 36 8 42 -12 43 -21 1z"/>
<path d="M11335 8170 c-3 -5 -2 -10 4 -10 5 0 13 5 16 10 3 6 2 10 -4 10 -5 0
-13 -4 -16 -10z"/>
<path d="M9366 8143 c-6 -14 -5 -15 5 -6 7 7 10 15 7 18 -3 3 -9 -2 -12 -12z"/>
<path d="M9957 8144 c-4 -4 -7 -14 -7 -23 0 -11 3 -12 11 -4 6 6 10 16 7 23
-2 6 -7 8 -11 4z"/>
<path d="M11320 8130 c0 -5 5 -10 10 -10 6 0 10 5 10 10 0 6 -4 10 -10 10 -5
0 -10 -4 -10 -10z"/>
<path d="M11116 8115 c4 -9 0 -15 -10 -15 -10 0 -16 -9 -16 -25 0 -19 10 -29
41 -45 23 -12 48 -18 60 -15 13 4 19 2 19 -9 0 -9 3 -16 6 -16 11 0 33 34 34
51 0 23 -43 59 -72 59 -14 0 -31 7 -38 15 -7 8 -16 15 -21 15 -5 0 -6 -7 -3
-15z"/>
<path d="M9345 8110 c-3 -5 -1 -10 4 -10 6 0 11 5 11 10 0 6 -2 10 -4 10 -3 0
-8 -4 -11 -10z"/>
<path d="M9672 8090 c0 -14 2 -19 5 -12 2 6 2 18 0 25 -3 6 -5 1 -5 -13z"/>
<path d="M9927 8093 c-12 -12 -7 -22 8 -17 8 4 15 10 15 15 0 11 -14 12 -23 2z"/>
<path d="M9318 8068 c-25 -31 -23 -46 2 -18 11 13 20 27 20 32 0 12 -3 10 -22
-14z"/>
<path d="M10675 8080 c-3 -5 1 -10 9 -10 9 0 16 5 16 10 0 6 -4 10 -9 10 -6 0
-13 -4 -16 -10z"/>
<path d="M10705 8038 c4 -13 13 -29 21 -37 11 -12 11 -9 2 22 -6 20 -15 37
-20 37 -5 0 -6 -10 -3 -22z"/>
<path d="M9690 8041 c0 -6 5 -13 10 -16 6 -3 10 1 10 9 0 9 -4 16 -10 16 -5 0
-10 -4 -10 -9z"/>
<path d="M9886 8025 c-9 -26 -7 -32 5 -12 6 10 9 21 6 23 -2 3 -7 -2 -11 -11z"/>
<path d="M10507 8033 c-4 -3 -7 -11 -7 -17 0 -6 5 -5 12 2 6 6 9 14 7 17 -3 3
-9 2 -12 -2z"/>
<path d="M11445 8020 c-3 -11 -2 -27 3 -36 8 -14 10 -9 14 20 4 38 -6 49 -17
16z"/>
<path d="M9191 8006 c-42 -15 -65 -44 -50 -63 6 -7 19 -13 29 -13 10 0 21 -10
24 -22 6 -21 7 -21 17 -5 5 9 20 17 33 17 13 0 31 9 41 20 17 19 17 20 -15 50
-36 34 -33 33 -79 16z"/>
<path d="M9280 8005 c0 -8 7 -15 15 -15 9 0 12 6 9 15 -4 8 -10 15 -15 15 -5
0 -9 -7 -9 -15z"/>
<path d="M10474 7976 c-9 -15 -14 -29 -10 -33 3 -3 6 -1 6 5 0 6 7 18 16 27 9
9 14 18 11 21 -3 3 -13 -6 -23 -20z"/>
<path d="M9851 7963 c-13 -28 -13 -28 8 -9 22 20 27 36 13 36 -5 0 -14 -12
-21 -27z"/>
<path d="M11040 7944 c0 -8 5 -12 10 -9 6 3 10 10 10 16 0 5 -4 9 -10 9 -5 0
-10 -7 -10 -16z"/>
<path d="M11252 7930 c7 -10 14 -18 15 -16 6 6 -9 36 -18 36 -5 0 -4 -9 3 -20z"/>
<path d="M9727 7926 c-61 -19 -78 -76 -22 -76 18 0 25 -5 25 -20 0 -11 5 -20
10 -20 6 0 10 5 10 10 0 6 10 10 23 10 35 0 77 23 77 43 0 9 -7 17 -15 17 -8
0 -15 5 -15 10 0 6 5 10 10 10 6 0 10 4 10 9 0 5 -10 9 -22 8 -13 0 -30 2 -38
5 -8 3 -32 1 -53 -6z"/>
<path d="M11017 7913 c-12 -12 -7 -22 8 -17 8 4 15 10 15 15 0 11 -14 12 -23
2z"/>
<path d="M10765 7889 c-11 -17 1 -21 15 -4 8 9 8 15 2 15 -6 0 -14 -5 -17 -11z"/>
<path d="M11428 7882 c-3 -10 1 -27 8 -37 12 -16 13 -14 12 18 -1 39 -12 49
-20 19z"/>
<path d="M9180 7870 c0 -5 5 -10 10 -10 6 0 10 5 10 10 0 6 -4 10 -10 10 -5 0
-10 -4 -10 -10z"/>
<path d="M10786 7862 c-3 -6 -1 -14 5 -17 14 -9 20 -2 10 14 -6 8 -11 9 -15 3z"/>
<path d="M9160 7839 c0 -5 5 -7 10 -4 6 3 10 8 10 11 0 2 -4 4 -10 4 -5 0 -10
-5 -10 -11z"/>
<path d="M10975 7839 c-4 -6 -5 -12 -2 -15 2 -3 7 2 10 11 7 17 1 20 -8 4z"/>
<path d="M9290 7831 c0 -5 5 -13 10 -16 6 -3 10 -2 10 4 0 5 -4 13 -10 16 -5
3 -10 2 -10 -4z"/>
<path d="M9677 7809 c7 -7 15 -10 18 -7 3 3 -2 9 -12 12 -14 6 -15 5 -6 -5z"/>
<path d="M11300 7804 c0 -8 5 -12 10 -9 6 3 10 10 10 16 0 5 -4 9 -10 9 -5 0
-10 -7 -10 -16z"/>
<path d="M9322 7798 c-14 -14 -16 -28 -3 -28 9 0 24 30 18 36 -2 2 -9 -2 -15
-8z"/>
<path d="M10936 7771 c-29 -45 -31 -51 -16 -51 6 0 10 6 10 14 0 7 10 25 21
40 12 15 19 29 16 32 -3 3 -17 -12 -31 -35z"/>
<path d="M9130 7789 c0 -5 5 -7 10 -4 6 3 10 8 10 11 0 2 -4 4 -10 4 -5 0 -10
-5 -10 -11z"/>
<path d="M9715 7790 c-3 -5 -1 -10 4 -10 6 0 11 5 11 10 0 6 -2 10 -4 10 -3 0
-8 -4 -11 -10z"/>
<path d="M11414 7779 c-3 -6 -1 -16 5 -22 8 -8 11 -5 11 11 0 24 -5 28 -16 11z"/>
<path d="M11325 7770 c3 -5 8 -10 11 -10 2 0 4 5 4 10 0 6 -5 10 -11 10 -5 0
-7 -4 -4 -10z"/>
<path d="M9696 7755 c-9 -26 -7 -32 5 -12 6 10 9 21 6 23 -2 3 -7 -2 -11 -11z"/>
<path d="M9330 7744 c0 -6 7 -19 16 -30 14 -18 14 -18 3 6 -14 31 -19 36 -19
24z"/>
<path d="M9836 7737 c3 -10 9 -15 12 -12 3 3 0 11 -7 18 -10 9 -11 8 -5 -6z"/>
<path d="M10822 7736 c-57 -20 -70 -76 -17 -76 19 0 25 -5 25 -22 0 -20 1 -20
18 -5 10 10 27 17 38 17 11 0 25 10 32 21 12 19 10 24 -14 50 -31 32 -34 33
-82 15z"/>
<path d="M9097 7733 c-4 -3 -7 -11 -7 -17 0 -6 5 -5 12 2 6 6 9 14 7 17 -3 3
-9 2 -12 -2z"/>
<path d="M11405 7705 c-3 -8 -7 -21 -9 -29 -2 -7 -18 -16 -35 -19 -38 -8 -72
-54 -50 -68 8 -5 27 -8 43 -7 16 2 31 -2 33 -9 3 -7 -3 -13 -13 -13 -16 0 -16
-1 -1 -18 10 -10 17 -25 17 -32 0 -24 15 1 17 28 13 159 12 213 -2 167z"/>
<path d="M9855 7701 c-3 -5 -1 -12 4 -15 5 -3 11 1 15 9 6 16 -9 21 -19 6z"/>
<path d="M9067 7693 c-10 -9 -9 -23 2 -23 5 0 11 7 15 15 5 15 -5 20 -17 8z"/>
<path d="M9373 7650 c6 -16 13 -28 15 -26 6 6 -10 56 -18 56 -5 0 -3 -13 3
-30z"/>
<path d="M9633 7662 c-7 -4 -9 -13 -4 -21 6 -9 10 -7 14 8 3 12 4 21 4 21 -1
0 -7 -4 -14 -8z"/>
<path d="M9880 7645 c0 -5 5 -17 10 -25 5 -8 10 -10 10 -5 0 6 -5 17 -10 25
-5 8 -10 11 -10 5z"/>
<path d="M10870 7620 c0 -5 5 -10 11 -10 5 0 7 5 4 10 -3 6 -8 10 -11 10 -2 0
-4 -4 -4 -10z"/>
<path d="M9046 7603 c-6 -14 -5 -15 5 -6 7 7 10 15 7 18 -3 3 -9 -2 -12 -12z"/>
<path d="M9600 7604 c0 -8 5 -12 10 -9 6 3 10 10 10 16 0 5 -4 9 -10 9 -5 0
-10 -7 -10 -16z"/>
<path d="M9400 7597 c0 -8 -7 -17 -15 -21 -8 -3 -15 -18 -15 -33 0 -24 7 -31
43 -45 55 -22 111 -13 115 20 4 26 -32 61 -63 62 -11 0 -31 7 -43 16 -19 13
-22 13 -22 1z"/>
<path d="M10807 7587 c-9 -11 -17 -25 -17 -30 0 -6 10 2 21 17 12 15 20 29 17
31 -2 2 -11 -6 -21 -18z"/>
<path d="M9904 7591 c3 -4 10 -21 16 -36 6 -15 13 -26 15 -23 8 8 -16 68 -27
68 -5 0 -7 -4 -4 -9z"/>
<path d="M10920 7561 c0 -5 5 -13 10 -16 6 -3 10 -2 10 4 0 5 -4 13 -10 16 -5
3 -10 2 -10 -4z"/>
<path d="M8956 7551 c-3 -5 1 -11 9 -15 9 -3 15 0 15 9 0 16 -16 20 -24 6z"/>
<path d="M9579 7523 c-13 -16 -12 -17 4 -4 16 13 21 21 13 21 -2 0 -10 -8 -17
-17z"/>
<path d="M10945 7521 c-3 -5 -1 -12 5 -16 5 -3 10 1 10 9 0 18 -6 21 -15 7z"/>
<path d="M9940 7506 c0 -8 -5 -16 -12 -18 -7 -3 -9 -14 -4 -31 7 -31 83 -74
100 -57 5 5 18 10 27 10 9 0 19 6 22 14 7 19 -29 66 -51 66 -9 0 -30 7 -46 15
-35 18 -36 18 -36 1z"/>
<path d="M11343 7508 c-20 -26 -26 -41 -15 -34 12 7 36 46 29 46 -3 0 -9 -6
-14 -12z"/>
<path d="M8786 7495 c-3 -8 -1 -15 4 -15 6 0 10 7 10 15 0 8 -2 15 -4 15 -2 0
-6 -7 -10 -15z"/>
<path d="M9347 7503 c-4 -3 -7 -11 -7 -17 0 -6 5 -5 12 2 6 6 9 14 7 17 -3 3
-9 2 -12 -2z"/>
<path d="M8990 7491 c0 -5 5 -13 10 -16 6 -3 10 -2 10 4 0 5 -4 13 -10 16 -5
3 -10 2 -10 -4z"/>
<path d="M10466 7480 c3 -14 13 -36 21 -49 14 -22 14 -25 -2 -37 -12 -9 -15
-19 -9 -36 4 -13 7 -26 6 -30 -1 -5 4 -8 11 -8 6 0 25 -7 41 -15 38 -20 90 -8
94 23 4 27 -30 58 -71 66 -35 7 -61 31 -81 76 -10 22 -14 26 -10 10z"/>
<path d="M9496 7472 c-3 -6 -1 -14 5 -17 15 -10 25 3 12 16 -7 7 -13 7 -17 1z"/>
<path d="M8760 7460 c0 -5 5 -10 11 -10 5 0 7 5 4 10 -3 6 -8 10 -11 10 -2 0
-4 -4 -4 -10z"/>
<path d="M10720 7460 c-13 -8 -12 -10 3 -10 9 0 17 5 17 10 0 12 -1 12 -20 0z"/>
<path d="M10970 7465 c0 -5 5 -17 10 -25 5 -8 10 -10 10 -5 0 6 -5 17 -10 25
-5 8 -10 11 -10 5z"/>
<path d="M9521 7430 c-1 -18 16 -46 23 -40 2 3 -2 16 -9 30 -8 15 -14 19 -14
10z"/>
<path d="M9320 7414 c0 -8 5 -12 10 -9 6 3 10 10 10 16 0 5 -4 9 -10 9 -5 0
-10 -7 -10 -16z"/>
<path d="M10700 7420 c0 -5 5 -10 10 -10 6 0 10 5 10 10 0 6 -4 10 -10 10 -5
0 -10 -4 -10 -10z"/>
<path d="M11005 7390 c4 -14 12 -29 17 -35 7 -7 8 -2 3 15 -4 14 -12 30 -17
35 -7 7 -8 2 -3 -15z"/>
<path d="M9297 7376 c-4 -10 1 -12 14 -9 23 6 24 9 5 16 -8 3 -17 0 -19 -7z"/>
<path d="M10050 7380 c0 -5 5 -10 10 -10 6 0 10 5 10 10 0 6 -4 10 -10 10 -5
0 -10 -4 -10 -10z"/>
<path d="M11261 7381 c-8 -5 -9 -11 -3 -15 5 -3 12 1 16 9 6 17 6 18 -13 6z"/>
<path d="M11376 7367 c-5 -15 -6 -31 -2 -34 11 -11 18 5 14 34 l-4 28 -8 -28z"/>
<path d="M9046 7364 c-4 -9 -4 -19 -1 -22 2 -3 7 3 11 12 4 9 4 19 1 22 -2 3
-7 -3 -11 -12z"/>
<path d="M9550 7365 c0 -5 5 -17 10 -25 5 -8 10 -10 10 -5 0 6 -5 17 -10 25
-5 8 -10 11 -10 5z"/>
<path d="M10070 7350 c0 -5 5 -10 11 -10 5 0 7 5 4 10 -3 6 -8 10 -11 10 -2 0
-4 -4 -4 -10z"/>
<path d="M9883 7335 c-3 -9 -3 -18 -1 -21 3 -3 8 4 11 16 6 23 -1 27 -10 5z"/>
<path d="M10675 7340 c-3 -5 -1 -10 4 -10 6 0 11 5 11 10 0 6 -2 10 -4 10 -3
0 -8 -4 -11 -10z"/>
<path d="M11236 7334 c-5 -14 -4 -15 9 -4 17 14 19 20 6 20 -5 0 -12 -7 -15
-16z"/>
<path d="M9060 7332 c0 -5 7 -15 15 -22 8 -7 15 -8 15 -2 0 5 -7 15 -15 22 -8
7 -15 8 -15 2z"/>
<path d="M11030 7326 c0 -8 -5 -16 -11 -18 -7 -2 -9 -15 -5 -35 13 -56 130
-80 149 -30 9 25 -20 54 -68 66 -25 6 -45 16 -45 21 0 6 -4 10 -10 10 -5 0
-10 -6 -10 -14z"/>
<path d="M10085 7320 c3 -5 8 -10 11 -10 2 0 4 5 4 10 0 6 -5 10 -11 10 -5 0
-7 -4 -4 -10z"/>
<path d="M9850 7290 c0 -13 11 -13 30 0 12 8 11 10 -7 10 -13 0 -23 -4 -23
-10z"/>
<path d="M9228 7259 c-9 -16 -14 -29 -9 -29 8 0 34 50 29 56 -2 1 -11 -11 -20
-27z"/>
<path d="M9580 7274 c0 -8 5 -12 10 -9 6 3 10 10 10 16 0 5 -4 9 -10 9 -5 0
-10 -7 -10 -16z"/>
<path d="M10605 7280 c-3 -5 -1 -10 5 -10 6 0 19 -19 30 -42 10 -24 19 -37 19
-30 1 13 -36 92 -44 92 -2 0 -7 -4 -10 -10z"/>
<path d="M11363 7275 c-3 -9 -3 -18 -1 -21 3 -3 8 4 11 16 6 23 -1 27 -10 5z"/>
<path d="M11215 7260 c-3 -5 -1 -10 4 -10 6 0 11 5 11 10 0 6 -2 10 -4 10 -3
0 -8 -4 -11 -10z"/>
<path d="M9600 7246 c0 -9 5 -16 10 -16 6 0 10 4 10 9 0 6 -4 13 -10 16 -5 3
-10 -1 -10 -9z"/>
<path d="M10435 7230 c-3 -5 -1 -10 4 -10 6 0 11 5 11 10 0 6 -2 10 -4 10 -3
0 -8 -4 -11 -10z"/>
<path d="M9100 7205 c-56 -20 -65 -80 -12 -80 24 0 27 -36 4 -60 -18 -20 -35
-55 -27 -55 3 0 21 25 41 55 27 40 43 55 60 55 13 0 28 9 35 21 9 18 7 26 -17
50 -30 32 -33 32 -84 14z"/>
<path d="M9196 7205 c-3 -9 0 -15 9 -15 9 0 12 6 9 15 -4 8 -7 15 -9 15 -2 0
-5 -7 -9 -15z"/>
<path d="M11146 7201 c-4 -6 -2 -11 3 -11 6 0 11 -8 12 -17 0 -10 3 -13 5 -6
8 18 -11 49 -20 34z"/>
<path d="M9784 7175 c-9 -14 -15 -28 -12 -30 2 -2 12 9 22 25 21 36 13 40 -10
5z"/>
<path d="M10672 7160 c7 -10 14 -18 15 -16 6 6 -9 36 -18 36 -5 0 -4 -9 3 -20z"/>
<path d="M11346 7163 c-4 -9 -3 -20 2 -25 6 -6 11 1 14 16 6 29 -6 35 -16 9z"/>
<path d="M8267 7102 l-57 -57 20 -55 c11 -30 20 -60 20 -67 0 -18 33 -93 41
-93 4 0 9 9 12 19 2 11 15 21 28 23 51 7 26 71 -35 86 -25 7 -33 16 -42 49
-12 40 -12 41 27 79 21 21 39 44 39 52 0 7 5 10 12 6 7 -4 8 -3 4 4 -4 7 -8
12 -9 12 -2 0 -28 -26 -60 -58z"/>
<path d="M10971 7144 c0 -11 3 -14 6 -6 3 7 2 16 -1 19 -3 4 -6 -2 -5 -13z"/>
<path d="M11170 7144 c0 -3 7 -12 15 -20 16 -17 18 -14 9 10 -6 15 -24 23 -24
10z"/>
<path d="M9624 7123 c-28 -5 -46 -43 -30 -65 8 -10 21 -14 44 -10 20 2 32 0
32 -7 0 -19 66 -13 85 9 18 20 18 21 -10 50 -29 30 -58 35 -121 23z"/>
<path d="M9755 7120 c-3 -5 -1 -10 4 -10 6 0 11 5 11 10 0 6 -2 10 -4 10 -3 0
-8 -4 -11 -10z"/>
<path d="M10940 7100 c-10 -19 -10 -20 9 -8 22 13 28 28 11 28 -5 0 -14 -9
-20 -20z"/>
<path d="M10696 7094 c-4 -9 -4 -19 -1 -22 2 -3 7 3 11 12 4 9 4 19 1 22 -2 3
-7 -3 -11 -12z"/>
<path d="M10716 7062 c-3 -6 -1 -14 5 -17 14 -9 20 -2 10 14 -6 8 -11 9 -15 3z"/>
<path d="M11226 7040 c7 -38 11 -46 19 -38 3 3 -2 20 -10 39 l-16 34 7 -35z"/>
<path d="M11337 7063 c-11 -10 -8 -53 3 -53 6 0 10 14 10 30 0 31 -2 35 -13
23z"/>
<path d="M10906 7043 c-6 -14 -5 -15 5 -6 7 7 10 15 7 18 -3 3 -9 -2 -12 -12z"/>
<path d="M9200 7032 c0 -12 19 -26 26 -19 2 2 -2 10 -11 17 -9 8 -15 8 -15 2z"/>
<path d="M9640 7020 c0 -5 5 -10 10 -10 6 0 10 5 10 10 0 6 -4 10 -10 10 -5 0
-10 -4 -10 -10z"/>
<path d="M10878 6998 c-25 -31 -23 -46 2 -18 11 13 20 27 20 32 0 12 -3 10
-22 -14z"/>
<path d="M9047 6993 c-4 -3 -7 -11 -7 -17 0 -6 5 -5 12 2 6 6 9 14 7 17 -3 3
-9 2 -12 -2z"/>
<path d="M9231 6984 c0 -11 3 -14 6 -6 3 7 2 16 -1 19 -3 4 -6 -2 -5 -13z"/>
<path d="M9624 6976 c-6 -7 -17 -23 -24 -37 -10 -20 -8 -19 14 6 14 17 25 33
26 38 0 10 -3 8 -16 -7z"/>
<path d="M11255 6970 c3 -5 8 -10 11 -10 2 0 4 5 4 10 0 6 -5 10 -11 10 -5 0
-7 -4 -4 -10z"/>
<path d="M9010 6935 c-7 -9 -10 -18 -7 -21 3 -3 10 4 17 15 13 25 8 27 -10 6z"/>
<path d="M9760 6941 c0 -5 5 -13 10 -16 6 -3 10 -2 10 4 0 5 -4 13 -10 16 -5
3 -10 2 -10 -4z"/>
<path d="M10760 6938 c-45 -11 -75 -45 -59 -64 6 -8 22 -14 35 -14 18 0 24 -6
24 -22 0 -20 1 -20 18 -5 10 10 25 17 34 17 8 0 23 9 33 20 15 16 15 22 5 35
-8 10 -9 15 -1 15 6 0 11 7 11 16 0 13 -3 14 -14 5 -10 -8 -21 -9 -33 -3 -11
5 -32 5 -53 0z"/>
<path d="M11315 6917 c-4 -13 -5 -29 -3 -37 2 -8 -10 -17 -28 -23 -18 -5 -38
-20 -45 -34 -12 -22 -11 -27 4 -38 9 -7 29 -10 45 -7 22 4 25 3 17 -9 -12 -16
-12 -36 0 -63 15 -34 25 7 32 123 4 80 3 111 -5 111 -7 0 -14 -10 -17 -23z"/>
<path d="M9785 6899 c-11 -17 1 -21 15 -4 8 9 8 15 2 15 -6 0 -14 -5 -17 -11z"/>
<path d="M8980 6884 c0 -8 5 -12 10 -9 6 3 10 10 10 16 0 5 -4 9 -10 9 -5 0
-10 -7 -10 -16z"/>
<path d="M9292 6836 c21 -44 21 -48 6 -57 -16 -9 -16 -12 -1 -44 9 -19 21 -35
27 -35 6 0 22 -6 36 -13 21 -11 31 -11 58 0 54 22 33 72 -37 88 -34 7 -81 48
-81 69 0 8 -7 19 -16 27 -11 9 -9 -1 8 -35z"/>
<path d="M9546 6859 c-11 -10 -17 -21 -14 -24 7 -7 38 23 38 36 0 12 -2 11
-24 -12z"/>
<path d="M8340 6849 c0 -6 8 -18 17 -27 16 -16 16 -16 10 1 -4 10 -7 23 -7 28
0 5 -4 9 -10 9 -5 0 -10 -5 -10 -11z"/>
<path d="M8298 6815 c-7 -7 14 -55 25 -55 4 0 7 7 7 15 0 8 -4 15 -10 15 -5 0
-7 7 -4 15 6 14 -7 21 -18 10z"/>
<path d="M9516 6803 c-6 -14 -5 -15 5 -6 7 7 10 15 7 18 -3 3 -9 -2 -12 -12z"/>
<path d="M8370 6791 c0 -5 5 -13 10 -16 6 -3 10 -2 10 4 0 5 -4 13 -10 16 -5
3 -10 2 -10 -4z"/>
<path d="M10720 6771 c-6 -12 -7 -21 -1 -21 10 0 24 30 17 37 -2 3 -9 -5 -16
-16z"/>
<path d="M9840 6770 c0 -5 5 -10 11 -10 5 0 7 5 4 10 -3 6 -8 10 -11 10 -2 0
-4 -4 -4 -10z"/>
<path d="M10100 6765 c-8 -9 -8 -15 -2 -15 12 0 26 19 19 26 -2 2 -10 -2 -17
-11z"/>
<path d="M10850 6761 c0 -5 5 -13 10 -16 6 -3 10 -2 10 4 0 5 -4 13 -10 16 -5
3 -10 2 -10 -4z"/>
<path d="M8890 6740 c0 -5 7 -10 16 -10 8 0 12 5 9 10 -3 6 -10 10 -16 10 -5
0 -9 -4 -9 -10z"/>
<path d="M8326 6732 c-8 -13 4 -71 15 -78 5 -3 9 -11 9 -19 0 -8 5 -26 12 -42
7 -15 12 -34 12 -42 1 -17 26 -28 26 -12 0 11 -59 194 -65 199 -2 2 -6 -1 -9
-6z"/>
<path d="M9485 6720 c-3 -5 -1 -10 4 -10 6 0 11 5 11 10 0 6 -2 10 -4 10 -3 0
-8 -4 -11 -10z"/>
<path d="M10070 6714 c0 -8 5 -12 10 -9 6 3 10 10 10 16 0 5 -4 9 -10 9 -5 0
-10 -7 -10 -16z"/>
<path d="M10690 6719 c0 -5 5 -7 10 -4 6 3 10 8 10 11 0 2 -4 4 -10 4 -5 0
-10 -5 -10 -11z"/>
<path d="M10877 6723 c-10 -9 -9 -23 2 -23 5 0 11 7 15 15 5 15 -5 20 -17 8z"/>
<path d="M9870 6705 c0 -8 -4 -15 -10 -15 -5 0 -10 -13 -10 -30 0 -25 6 -32
47 -50 32 -14 50 -17 57 -10 5 5 18 10 27 10 9 0 20 7 23 16 8 21 -37 64 -68
64 -13 0 -31 7 -40 15 -8 8 -17 15 -20 15 -3 0 -6 -7 -6 -15z"/>
<path d="M8930 6686 c0 -8 4 -17 9 -20 5 -4 7 3 4 14 -6 23 -13 26 -13 6z"/>
<path d="M10667 6673 c-11 -13 -17 -26 -14 -29 2 -3 12 7 21 22 23 33 17 39
-7 7z"/>
<path d="M11256 6685 c-9 -26 -7 -32 5 -12 6 10 9 21 6 23 -2 3 -7 -2 -11 -11z"/>
<path d="M8426 6655 c-3 -8 -1 -15 4 -15 6 0 10 7 10 15 0 8 -2 15 -4 15 -2 0
-6 -7 -10 -15z"/>
<path d="M9425 6660 c-3 -5 1 -10 9 -10 9 0 16 -5 16 -12 0 -6 2 -9 5 -6 7 7
-5 38 -15 38 -5 0 -12 -4 -15 -10z"/>
<path d="M10900 6651 c0 -6 4 -13 10 -16 6 -3 7 1 4 9 -7 18 -14 21 -14 7z"/>
<path d="M9256 6621 c-4 -7 -5 -15 -2 -18 9 -9 19 4 14 18 -4 11 -6 11 -12 0z"/>
<path d="M10627 6616 c-4 -10 -1 -13 9 -9 15 6 19 23 5 23 -5 0 -11 -7 -14
-14z"/>
<path d="M9460 6611 c0 -6 4 -13 10 -16 6 -3 7 1 4 9 -7 18 -14 21 -14 7z"/>
<path d="M10930 6595 c0 -8 4 -15 10 -15 5 0 7 7 4 15 -4 8 -8 15 -10 15 -2 0
-4 -7 -4 -15z"/>
<path d="M11193 6585 c-7 -8 -9 -16 -4 -19 5 -3 12 1 15 10 8 22 4 25 -11 9z"/>
<path d="M9975 6580 c-3 -5 1 -10 10 -10 9 0 13 5 10 10 -3 6 -8 10 -10 10 -2
0 -7 -4 -10 -10z"/>
<path d="M9230 6570 c0 -5 7 -7 15 -4 8 4 15 8 15 10 0 2 -7 4 -15 4 -8 0 -15
-4 -15 -10z"/>
<path d="M11290 6560 c0 -11 0 -23 -1 -27 0 -4 4 -9 10 -11 6 -2 11 10 11 27
0 17 -4 31 -10 31 -5 0 -10 -9 -10 -20z"/>
<path d="M8980 6560 c0 -5 5 -10 11 -10 5 0 7 5 4 10 -3 6 -8 10 -11 10 -2 0
-4 -4 -4 -10z"/>
<path d="M9806 6534 c-4 -9 -4 -19 -1 -22 2 -3 7 3 11 12 4 9 4 19 1 22 -2 3
-7 -3 -11 -12z"/>
<path d="M10605 6540 c-3 -5 -1 -10 4 -10 6 0 11 5 11 10 0 6 -2 10 -4 10 -3
0 -8 -4 -11 -10z"/>
<path d="M11160 6534 c0 -8 5 -12 10 -9 6 3 10 10 10 16 0 5 -4 9 -10 9 -5 0
-10 -7 -10 -16z"/>
<path d="M10956 6526 c3 -7 -1 -16 -9 -19 -10 -4 -13 -14 -9 -32 11 -58 142
-82 150 -27 4 29 -17 49 -62 58 -21 3 -40 13 -43 20 -3 8 -11 14 -19 14 -7 0
-11 -6 -8 -14z"/>
<path d="M9000 6515 c7 -9 15 -13 17 -11 7 7 -7 26 -19 26 -6 0 -6 -6 2 -15z"/>
<path d="M9950 6519 c0 -5 5 -7 10 -4 6 3 10 8 10 11 0 2 -4 4 -10 4 -5 0 -10
-5 -10 -11z"/>
<path d="M9190 6499 c0 -5 5 -7 10 -4 6 3 10 8 10 11 0 2 -4 4 -10 4 -5 0 -10
-5 -10 -11z"/>
<path d="M9777 6486 c-4 -10 -1 -13 9 -9 15 6 19 23 5 23 -5 0 -11 -7 -14 -14z"/>
<path d="M11282 6482 c-8 -13 -11 -31 -7 -39 9 -26 27 0 23 33 l-3 29 -13 -23z"/>
<path d="M9516 6475 c-3 -8 -1 -15 4 -15 6 0 10 7 10 15 0 8 -2 15 -4 15 -2 0
-6 -7 -10 -15z"/>
<path d="M10535 6480 c-3 -5 -1 -10 4 -10 6 0 11 5 11 10 0 6 -2 10 -4 10 -3
0 -8 -4 -11 -10z"/>
<path d="M9056 6457 c3 -10 9 -15 12 -12 3 3 0 11 -7 18 -10 9 -11 8 -5 -6z"/>
<path d="M9161 6452 c-17 -31 -13 -40 5 -14 9 13 14 26 11 29 -3 2 -10 -4 -16
-15z"/>
<path d="M11140 6460 c-9 -6 -10 -10 -3 -10 6 0 15 5 18 10 8 12 4 12 -15 0z"/>
<path d="M9530 6441 c0 -5 7 -11 14 -14 10 -4 13 -1 9 9 -6 15 -23 19 -23 5z"/>
<path d="M10920 6430 c-9 -6 -10 -10 -3 -10 6 0 15 5 18 10 8 12 4 12 -15 0z"/>
<path d="M10571 6414 c0 -11 3 -14 6 -6 3 7 2 16 -1 19 -3 4 -6 -2 -5 -13z"/>
<path d="M9032 6403 c-32 -6 -58 -48 -42 -68 7 -8 21 -15 31 -15 11 0 19 -7
19 -15 0 -18 17 -20 22 -3 2 6 14 12 25 13 25 1 53 22 53 39 0 20 -44 56 -66
55 -10 -1 -29 -4 -42 -6z"/>
<path d="M9130 6400 c0 -5 5 -10 10 -10 6 0 10 5 10 10 0 6 -4 10 -10 10 -5 0
-10 -4 -10 -10z"/>
<path d="M10066 6395 c-3 -8 -1 -15 4 -15 6 0 10 7 10 15 0 8 -2 15 -4 15 -2
0 -6 -7 -10 -15z"/>
<path d="M9714 6375 c-9 -14 -15 -28 -12 -30 2 -2 12 9 22 25 21 36 13 40 -10
5z"/>
<path d="M11060 6396 c0 -2 7 -6 15 -10 8 -3 15 -1 15 4 0 6 -7 10 -15 10 -8
0 -15 -2 -15 -4z"/>
<path d="M9591 6374 c0 -11 3 -14 6 -6 3 7 2 16 -1 19 -3 4 -6 -2 -5 -13z"/>
<path d="M11260 6371 c0 -6 5 -13 10 -16 6 -3 10 1 10 9 0 9 -4 16 -10 16 -5
0 -10 -4 -10 -9z"/>
<path d="M10080 6361 c0 -6 5 -13 10 -16 6 -3 10 1 10 9 0 9 -4 16 -10 16 -5
0 -10 -4 -10 -9z"/>
<path d="M10896 6351 c-4 -7 -5 -15 -2 -18 9 -9 19 4 14 18 -4 11 -6 11 -12 0z"/>
<path d="M11100 6343 c0 -4 5 -15 10 -23 8 -13 10 -13 10 2 0 9 -4 20 -10 23
-5 3 -10 3 -10 -2z"/>
<path d="M9562 6323 c-26 -5 -48 -43 -38 -68 4 -13 13 -15 36 -10 31 7 39 -2
18 -23 -7 -7 -9 -12 -4 -12 4 0 -2 -13 -14 -30 -12 -16 -18 -30 -13 -30 5 0
19 18 33 40 18 28 30 38 45 36 23 -4 75 23 75 39 0 6 -14 23 -31 38 -30 26
-52 30 -107 20z"/>
<path d="M9680 6320 c0 -5 5 -10 10 -10 6 0 10 5 10 10 0 6 -4 10 -10 10 -5 0
-10 -4 -10 -10z"/>
<path d="M11246 6322 c-3 -6 -1 -14 5 -17 15 -10 25 3 12 16 -7 7 -13 7 -17 1z"/>
<path d="M10867 6306 c-4 -10 -1 -13 8 -9 8 3 12 9 9 14 -7 12 -11 11 -17 -5z"/>
<path d="M10617 6291 c-3 -14 -1 -18 9 -14 16 6 18 19 5 27 -5 3 -11 -3 -14
-13z"/>
<path d="M11120 6291 c0 -6 4 -13 10 -16 6 -3 7 1 4 9 -7 18 -14 21 -14 7z"/>
<path d="M9022 6259 c-19 -30 -8 -34 12 -4 9 14 13 25 9 25 -5 0 -14 -9 -21
-21z"/>
<path d="M11225 6244 c-9 -49 -25 -73 -44 -66 -13 5 -14 3 -5 -9 12 -14 9 -42
-14 -171 -13 -69 -26 -90 -91 -147 -28 -24 -64 -67 -81 -96 -26 -46 -33 -52
-56 -47 -14 2 -28 11 -31 18 -7 19 -23 18 -23 -1 0 -8 -4 -15 -10 -15 -16 0
-11 -33 9 -57 10 -11 29 -23 42 -25 13 -2 23 -9 21 -16 -1 -7 4 -20 12 -28 13
-12 15 -12 15 3 0 33 18 108 34 143 8 19 45 64 81 98 70 68 92 103 102 167 9
62 21 114 43 190 23 77 25 95 12 95 -5 0 -12 -16 -16 -36z"/>
<path d="M10637 6264 c-3 -5 1 -15 9 -22 16 -14 18 -5 5 17 -5 7 -11 9 -14 5z"/>
<path d="M9140 6215 c7 -9 15 -13 17 -11 7 7 -7 26 -19 26 -6 0 -6 -6 2 -15z"/>
<path d="M11157 6213 c-4 -3 -7 -11 -7 -17 0 -6 5 -5 12 2 6 6 9 14 7 17 -3 3
-9 2 -12 -2z"/>
<path d="M10801 6192 c-17 -31 -13 -40 5 -14 9 13 14 26 11 29 -3 2 -10 -4
-16 -15z"/>
<path d="M9160 6175 c0 -8 2 -15 4 -15 2 0 6 7 10 15 3 8 1 15 -4 15 -6 0 -10
-7 -10 -15z"/>
<path d="M9690 6142 c0 -5 6 -22 14 -36 10 -21 15 -23 19 -11 4 8 2 15 -3 15
-6 0 -10 6 -10 14 0 8 -4 18 -10 21 -5 3 -10 2 -10 -3z"/>
<path d="M10827 6139 c7 -7 15 -10 18 -7 3 3 -2 9 -12 12 -14 6 -15 5 -6 -5z"/>
<path d="M8943 6133 c-15 -5 -17 -23 -4 -23 5 0 11 7 15 15 3 8 4 15 3 14 -1
0 -8 -3 -14 -6z"/>
<path d="M10664 6133 c-24 -5 -50 -45 -40 -62 4 -6 18 -11 32 -11 30 0 32 -26
4 -72 -36 -59 -21 -55 16 5 27 41 43 57 59 57 28 0 49 24 41 47 -4 9 -1 20 6
24 7 4 9 11 5 16 -5 4 -12 1 -17 -7 -7 -12 -12 -12 -22 -2 -12 12 -41 14 -84
5z"/>
<path d="M9515 6109 c-4 -6 -5 -12 -2 -15 2 -3 7 2 10 11 7 17 1 20 -8 4z"/>
<path d="M8917 6093 c-10 -9 -9 -23 2 -23 5 0 11 7 15 15 5 15 -5 20 -17 8z"/>
<path d="M9470 6039 c0 -5 5 -7 10 -4 6 3 10 8 10 11 0 2 -4 4 -10 4 -5 0 -10
-5 -10 -11z"/>
<path d="M10063 6025 c-3 -9 -3 -18 -1 -21 3 -3 8 4 11 16 6 23 -1 27 -10 5z"/>
<path d="M9457 6013 c-4 -3 -7 -11 -7 -17 0 -6 5 -5 12 2 6 6 9 14 7 17 -3 3
-9 2 -12 -2z"/>
<path d="M8890 6000 c-9 -6 -10 -10 -3 -10 6 0 15 5 18 10 8 12 4 12 -15 0z"/>
<path d="M9243 5998 c3 -9 0 -19 -9 -22 -19 -7 -17 -26 6 -54 15 -19 33 -25
80 -29 58 -6 60 -5 60 18 0 30 -27 55 -71 64 -19 4 -43 15 -53 24 -18 15 -19
15 -13 -1z"/>
<path d="M10020 5960 c-13 -8 -12 -10 3 -10 9 0 17 5 17 10 0 12 -1 12 -20 0z"/>
<path d="M10780 5950 c0 -5 5 -10 10 -10 6 0 10 5 10 10 0 6 -4 10 -10 10 -5
0 -10 -4 -10 -10z"/>
<path d="M10000 5919 c0 -5 5 -7 10 -4 6 3 10 8 10 11 0 2 -4 4 -10 4 -5 0
-10 -5 -10 -11z"/>
<path d="M10615 5919 c-4 -6 -5 -12 -2 -15 2 -3 7 2 10 11 7 17 1 20 -8 4z"/>
<path d="M10807 5923 c-4 -3 -7 -11 -7 -17 0 -6 5 -5 12 2 6 6 9 14 7 17 -3 3
-9 2 -12 -2z"/>
<path d="M9790 5906 c0 -8 -6 -16 -12 -18 -20 -7 7 -57 38 -68 14 -6 45 -10
70 -10 36 0 44 3 44 18 0 25 -30 50 -68 58 -17 4 -37 13 -43 20 -15 18 -29 18
-29 0z"/>
<path d="M10575 5860 c-3 -5 -1 -10 4 -10 6 0 11 5 11 10 0 6 -2 10 -4 10 -3
0 -8 -4 -11 -10z"/>
<path d="M10557 5823 c-4 -3 -7 -11 -7 -17 0 -6 5 -5 12 2 6 6 9 14 7 17 -3 3
-9 2 -12 -2z"/>
<path d="M10857 5780 c8 -30 21 -34 15 -5 -2 14 -8 25 -12 25 -5 0 -6 -9 -3
-20z"/>
<path d="M8870 5065 c0 -8 4 -15 9 -15 5 0 11 7 15 15 3 9 0 15 -9 15 -8 0
-15 -7 -15 -15z"/>
<path d="M8895 5018 c17 -59 39 -108 47 -108 6 0 8 6 5 13 -2 6 -13 36 -23 65
-18 50 -42 75 -29 30z"/>
<path d="M9005 4620 c-3 -5 -1 -10 4 -10 6 0 11 5 11 10 0 6 -2 10 -4 10 -3 0
-8 -4 -11 -10z"/>
<path d="M10560 4345 c-8 -9 -8 -15 -2 -15 12 0 26 19 19 26 -2 2 -10 -2 -17
-11z"/>
<path d="M9330 3720 c0 -5 5 -10 10 -10 6 0 10 5 10 10 0 6 -4 10 -10 10 -5 0
-10 -4 -10 -10z"/>
<path d="M9410 3464 c0 -8 5 -12 10 -9 6 3 10 10 10 16 0 5 -4 9 -10 9 -5 0
-10 -7 -10 -16z"/>
<path d="M9425 3431 c-6 -11 9 -23 19 -14 9 9 7 23 -3 23 -6 0 -12 -4 -16 -9z"/>
<path d="M9440 3384 c0 -8 5 -12 10 -9 6 3 10 10 10 16 0 5 -4 9 -10 9 -5 0
-10 -7 -10 -16z"/>
<path d="M9456 3351 c-4 -7 -5 -15 -2 -18 9 -9 19 4 14 18 -4 11 -6 11 -12 0z"/>
<path d="M9477 3313 c-4 -3 -7 -11 -7 -17 0 -6 5 -5 12 2 6 6 9 14 7 17 -3 3
-9 2 -12 -2z"/>
<path d="M9928 2553 c6 -2 18 -2 25 0 6 3 1 5 -13 5 -14 0 -19 -2 -12 -5z"/>
<path d="M9743 2430 c9 -72 13 -84 27 -88 10 -4 11 2 6 19 -4 13 -10 39 -12
58 -2 19 -9 39 -15 45 -9 8 -10 0 -6 -34z"/>
<path d="M9770 2304 c0 -8 5 -12 10 -9 6 3 10 10 10 16 0 5 -4 9 -10 9 -5 0
-10 -7 -10 -16z"/>
<path d="M9787 2263 c-12 -12 -7 -22 8 -17 8 4 15 10 15 15 0 11 -14 12 -23 2z"/>
<path d="M9790 2130 c0 -38 4 -70 9 -70 11 0 26 103 17 125 -14 37 -26 11 -26
-55z"/>
<path d="M10040 2012 c0 -5 7 -13 16 -16 10 -4 14 -1 12 6 -5 15 -28 23 -28
10z"/>
</g>
</svg>
