<?xml version="1.0" standalone="no"?>
<!DOCTYPE svg PUBLIC "-//W3C//DTD SVG 20010904//EN"
 "http://www.w3.org/TR/2001/REC-SVG-20010904/DTD/svg10.dtd">
<svg version="1.0" xmlns="http://www.w3.org/2000/svg"
 width="1256.000000pt" height="1260.000000pt" viewBox="0 0 1256.000000 1260.000000"
 preserveAspectRatio="xMidYMid meet">

<g transform="translate(0.000000,1260.000000) scale(0.100000,-0.100000)"
fill="#000000" stroke="none">
<path d="M10116 9803 c-4 -5 -71 -11 -149 -16 -134 -7 -210 -13 -452 -35 -55
-5 -112 -14 -127 -20 -15 -6 -35 -9 -44 -5 -8 3 -32 1 -52 -5 -20 -6 -69 -21
-108 -32 -40 -12 -98 -37 -130 -56 -33 -20 -84 -49 -114 -65 -30 -17 -90 -52
-133 -79 -112 -71 -140 -66 -68 13 21 23 46 57 56 76 15 30 15 35 2 49 -13 12
-21 13 -44 4 -33 -13 -201 -55 -288 -72 -73 -14 -208 -57 -255 -81 -37 -18
-131 -91 -214 -165 -47 -43 -76 -55 -76 -33 0 6 23 36 50 68 28 32 50 65 50
73 0 22 -27 41 -47 35 -94 -29 -685 -231 -708 -242 -16 -8 -46 -22 -65 -30
-46 -20 -125 -70 -192 -121 -56 -43 -89 -79 -264 -281 -58 -68 -112 -123 -120
-123 -17 0 -18 -2 52 122 55 98 80 160 86 220 8 72 -4 82 -72 65 -57 -15 -72
-21 -205 -81 -45 -20 -85 -36 -90 -36 -20 0 -182 -85 -221 -116 -28 -23 -57
-63 -93 -133 -54 -102 -91 -150 -91 -118 0 9 10 40 23 69 54 122 43 138 -57
84 -167 -90 -723 -466 -782 -528 -76 -81 -130 -180 -274 -508 -73 -164 -68
-155 -76 -148 -5 6 85 293 112 353 33 76 64 163 64 179 0 37 -18 26 -453 -263
-330 -219 -354 -236 -435 -308 -70 -61 -138 -216 -147 -333 -2 -25 -8 -103
-14 -175 -11 -151 -9 -135 -21 -135 -15 0 -29 70 -29 154 0 44 -5 94 -10 110
-5 17 -12 47 -15 66 -7 41 -60 110 -84 110 -33 0 -160 -76 -227 -135 -105 -94
-455 -438 -468 -460 -24 -44 -32 -139 -29 -372 1 -200 -1 -243 -12 -243 -19 0
-34 44 -40 120 -5 61 -14 124 -32 230 -4 25 -14 51 -21 59 -26 25 -49 -17 -84
-149 -39 -150 -48 -197 -60 -315 -5 -49 -13 -137 -19 -195 -21 -208 -26 -295
-16 -325 5 -16 13 -70 18 -120 5 -49 13 -124 18 -165 5 -41 12 -100 15 -130 3
-30 17 -105 32 -166 l27 -110 -40 -62 c-61 -96 -111 -182 -143 -242 -16 -30
-49 -85 -73 -121 -23 -36 -72 -112 -108 -169 -71 -112 -108 -150 -147 -150
-28 0 -83 -50 -83 -76 0 -10 5 -32 11 -49 14 -38 2 -59 -101 -171 -36 -39 -92
-104 -125 -144 -33 -39 -84 -99 -113 -132 l-54 -60 6 -86 c3 -48 8 -108 12
-134 9 -67 -21 -186 -74 -295 -21 -43 -23 -55 -12 -68 21 -25 23 -23 235 320
37 61 80 127 94 149 20 31 25 49 23 93 -2 50 0 57 29 84 38 35 68 37 97 6 43
-46 19 -96 -60 -126 -25 -9 -60 -62 -250 -375 -43 -71 -78 -135 -78 -143 0
-29 36 -9 92 51 56 61 117 106 231 170 47 27 56 39 37 51 -5 3 6 39 27 83 19
42 56 122 80 177 25 55 57 127 72 160 15 33 41 89 56 125 16 36 36 73 46 84
17 18 17 18 27 -1 8 -14 5 -33 -13 -78 -13 -33 -58 -147 -100 -254 -92 -234
-105 -261 -145 -295 -25 -20 -28 -27 -16 -32 22 -8 73 25 100 66 29 42 47 81
122 260 133 320 124 304 183 314 43 7 80 48 63 69 -5 7 -13 26 -16 43 -6 25 0
40 29 82 24 35 35 63 35 86 0 26 16 59 61 128 33 51 86 134 117 183 116 183
184 277 214 295 26 15 50 18 148 18 64 -1 123 3 131 8 8 5 75 12 149 16 352
21 377 23 394 37 12 10 14 17 5 27 -6 8 -17 14 -24 14 -6 0 -38 9 -71 20 -32
12 -94 32 -138 45 -77 23 -106 39 -94 51 4 3 55 0 115 -7 397 -45 418 -45 515
-19 105 28 240 83 298 120 42 27 337 322 606 607 129 137 171 189 161 199 -9
9 -168 6 -267 -6 -133 -16 -487 -50 -520 -50 -16 0 -30 4 -30 8 0 6 168 37
545 98 44 7 100 18 125 24 25 6 74 15 110 20 102 14 160 34 225 78 54 36 183
163 293 290 44 51 55 91 25 93 -593 24 -610 25 -591 44 3 3 142 10 309 16 167
6 314 15 327 20 13 5 36 9 53 9 51 0 93 25 182 106 78 73 120 109 307 269 67
57 76 72 50 86 -41 22 -148 68 -172 74 -16 4 -28 13 -28 21 0 11 28 12 158 7
204 -8 228 0 385 115 140 104 407 355 407 383 0 26 -45 36 -235 54 -93 9 -181
18 -195 21 -23 5 -24 6 -6 16 13 8 100 9 269 5 223 -5 254 -4 300 13 102 35
215 98 395 221 301 205 567 379 579 379 13 0 73 57 73 69 0 7 -56 11 -165 11
-98 0 -165 4 -165 10 0 13 43 19 242 30 105 6 193 16 215 24 21 8 54 17 74 20
60 10 206 91 339 186 69 49 138 98 154 107 173 107 363 242 379 269 4 7 4 15
0 17 -5 3 -60 -1 -123 -9 -63 -7 -195 -23 -292 -34 -98 -11 -201 -25 -229 -30
-65 -12 -112 -13 -105 -1 6 10 104 28 321 61 77 11 196 30 265 40 69 11 134
20 146 20 50 0 242 88 346 159 60 40 111 77 114 82 3 5 40 29 82 54 80 45 122
79 122 95 0 14 -49 12 -185 -9 -67 -10 -124 -15 -129 -10 -6 5 -4 10 5 13 20
6 276 54 329 62 81 12 166 55 328 168 123 86 135 95 154 126 23 39 23 57 -1
70 -23 12 -603 14 -615 3z m-861 -452 c-6 -4 -30 -15 -55 -24 -25 -9 -74 -27
-110 -40 -36 -13 -164 -60 -285 -105 -419 -153 -775 -294 -986 -390 -36 -16
-103 -47 -150 -68 -130 -60 -522 -255 -639 -319 -58 -31 -130 -71 -160 -87
-325 -179 -774 -487 -1090 -749 -499 -414 -625 -525 -950 -835 -489 -466 -986
-1008 -1376 -1499 -188 -237 -523 -733 -673 -997 -18 -32 -46 -68 -63 -82 -29
-22 -33 -23 -55 -9 -13 8 -23 25 -23 36 0 49 413 679 676 1032 190 256 461
561 985 1110 480 502 697 704 1129 1051 772 619 1229 925 1825 1221 531 264
1204 528 1900 745 55 18 115 23 100 9z m-6633 -5462 c9 -5 25 -9 35 -9 31 0
92 -20 107 -36 8 -8 13 -21 10 -29 -12 -31 -45 -26 -151 26 -119 57 -135 67
-128 80 5 8 94 -14 127 -32z"/>
</g>
</svg>
